ISO-10303-21;
HEADER;
/* Generated by software containing ST-Developer
 * from STEP Tools, Inc. (www.steptools.com) 
 */

FILE_DESCRIPTION(
/* description */ (''),
/* implementation_level */ '2;1');

FILE_NAME(
/* name */ 'mousepad_.step',
/* time_stamp */ '2026-07-02T17:20:27-07:00',
/* author */ (''),
/* organization */ (''),
/* preprocessor_version */ 'ST-DEVELOPER v20.1',
/* originating_system */ 'Autodesk Translation Framework v15.8.0.0',
/* authorisation */ '');

FILE_SCHEMA (('AUTOMOTIVE_DESIGN { 1 0 10303 214 3 1 1 }'));
ENDSEC;

DATA;
#10=MECHANICAL_DESIGN_GEOMETRIC_PRESENTATION_REPRESENTATION('',(#23,#24),
#1768);
#11=ITEM_DEFINED_TRANSFORMATION($,$,#1070,#1161);
#12=ITEM_DEFINED_TRANSFORMATION($,$,#1139,#1162);
#13=(
REPRESENTATION_RELATIONSHIP($,$,#1782,#1781)
REPRESENTATION_RELATIONSHIP_WITH_TRANSFORMATION(#11)
SHAPE_REPRESENTATION_RELATIONSHIP()
);
#14=(
REPRESENTATION_RELATIONSHIP($,$,#1783,#1781)
REPRESENTATION_RELATIONSHIP_WITH_TRANSFORMATION(#12)
SHAPE_REPRESENTATION_RELATIONSHIP()
);
#15=CONTEXT_DEPENDENT_SHAPE_REPRESENTATION(#13,#1779);
#16=CONTEXT_DEPENDENT_SHAPE_REPRESENTATION(#14,#1780);
#17=NEXT_ASSEMBLY_USAGE_OCCURRENCE('\X2\30B330F330DD30FC30CD30F330C8\X0\1
:1','\X2\30B330F330DD30FC30CD30F330C8\X0\1:1',
'\X2\30B330F330DD30FC30CD30F330C8\X0\1:1',#1785,#1786,
'\X2\30B330F330DD30FC30CD30F330C8\X0\1:1');
#18=NEXT_ASSEMBLY_USAGE_OCCURRENCE('\X2\30B330F330DD30FC30CD30F330C8\X0\3
:1','\X2\30B330F330DD30FC30CD30F330C8\X0\3:1',
'\X2\30B330F330DD30FC30CD30F330C8\X0\3:1',#1785,#1787,
'\X2\30B330F330DD30FC30CD30F330C8\X0\3:1');
#19=SHAPE_REPRESENTATION_RELATIONSHIP('SRR','None',#1782,#21);
#20=SHAPE_REPRESENTATION_RELATIONSHIP('SRR','None',#1783,#22);
#21=ADVANCED_BREP_SHAPE_REPRESENTATION('',(#25),#1766);
#22=ADVANCED_BREP_SHAPE_REPRESENTATION('',(#26),#1767);
#23=STYLED_ITEM('',(#1800),#25);
#24=STYLED_ITEM('',(#1800),#26);
#25=MANIFOLD_SOLID_BREP('\X2\30DC30C730A3\X0\1',#1044);
#26=MANIFOLD_SOLID_BREP('\X2\30DC30C730A3\X0\1',#1045);
#27=FACE_BOUND('',#148,.T.);
#28=FACE_BOUND('',#149,.T.);
#29=FACE_BOUND('',#153,.T.);
#30=FACE_BOUND('',#154,.T.);
#31=FACE_BOUND('',#157,.T.);
#32=FACE_BOUND('',#165,.T.);
#33=CIRCLE('',#1076,5.);
#34=CIRCLE('',#1077,5.);
#35=CIRCLE('',#1079,5.);
#36=CIRCLE('',#1080,2.);
#37=CIRCLE('',#1081,2.);
#38=CIRCLE('',#1084,5.);
#39=CIRCLE('',#1085,5.);
#40=CIRCLE('',#1087,5.);
#41=CIRCLE('',#1089,1.5);
#42=CIRCLE('',#1090,1.5);
#43=CIRCLE('',#1092,5.);
#44=CIRCLE('',#1094,5.);
#45=CIRCLE('',#1096,1.5);
#46=CIRCLE('',#1097,1.5);
#47=CIRCLE('',#1100,2.);
#48=CIRCLE('',#1101,2.);
#49=CIRCLE('',#1102,2.);
#50=CIRCLE('',#1103,2.);
#51=CIRCLE('',#1106,2.);
#52=CIRCLE('',#1107,2.);
#53=CIRCLE('',#1123,1.5);
#54=CIRCLE('',#1126,1.5);
#55=CIRCLE('',#1129,1.5);
#56=CIRCLE('',#1132,1.5);
#57=CIRCLE('',#1144,5.);
#58=CIRCLE('',#1145,5.);
#59=CIRCLE('',#1147,5.00000007450581);
#60=CIRCLE('',#1148,5.00000007450581);
#61=CIRCLE('',#1153,5.);
#62=CIRCLE('',#1154,5.);
#63=CIRCLE('',#1157,5.);
#64=CIRCLE('',#1158,5.);
#65=CYLINDRICAL_SURFACE('',#1075,5.);
#66=CYLINDRICAL_SURFACE('',#1083,5.);
#67=CYLINDRICAL_SURFACE('',#1091,5.);
#68=CYLINDRICAL_SURFACE('',#1093,5.);
#69=CYLINDRICAL_SURFACE('',#1114,2.);
#70=CYLINDRICAL_SURFACE('',#1116,2.);
#71=CYLINDRICAL_SURFACE('',#1118,2.);
#72=CYLINDRICAL_SURFACE('',#1120,2.);
#73=CYLINDRICAL_SURFACE('',#1122,1.5);
#74=CYLINDRICAL_SURFACE('',#1125,1.5);
#75=CYLINDRICAL_SURFACE('',#1128,1.5);
#76=CYLINDRICAL_SURFACE('',#1131,1.5);
#77=CYLINDRICAL_SURFACE('',#1143,5.);
#78=CYLINDRICAL_SURFACE('',#1146,5.00000007450581);
#79=CYLINDRICAL_SURFACE('',#1152,5.);
#80=CYLINDRICAL_SURFACE('',#1156,5.);
#81=FACE_OUTER_BOUND('',#138,.T.);
#82=FACE_OUTER_BOUND('',#139,.T.);
#83=FACE_OUTER_BOUND('',#140,.T.);
#84=FACE_OUTER_BOUND('',#141,.T.);
#85=FACE_OUTER_BOUND('',#142,.T.);
#86=FACE_OUTER_BOUND('',#143,.T.);
#87=FACE_OUTER_BOUND('',#144,.T.);
#88=FACE_OUTER_BOUND('',#145,.T.);
#89=FACE_OUTER_BOUND('',#146,.T.);
#90=FACE_OUTER_BOUND('',#147,.T.);
#91=FACE_OUTER_BOUND('',#150,.T.);
#92=FACE_OUTER_BOUND('',#151,.T.);
#93=FACE_OUTER_BOUND('',#152,.T.);
#94=FACE_OUTER_BOUND('',#155,.T.);
#95=FACE_OUTER_BOUND('',#156,.T.);
#96=FACE_OUTER_BOUND('',#158,.T.);
#97=FACE_OUTER_BOUND('',#159,.T.);
#98=FACE_OUTER_BOUND('',#160,.T.);
#99=FACE_OUTER_BOUND('',#161,.T.);
#100=FACE_OUTER_BOUND('',#162,.T.);
#101=FACE_OUTER_BOUND('',#163,.T.);
#102=FACE_OUTER_BOUND('',#164,.T.);
#103=FACE_OUTER_BOUND('',#166,.T.);
#104=FACE_OUTER_BOUND('',#167,.T.);
#105=FACE_OUTER_BOUND('',#168,.T.);
#106=FACE_OUTER_BOUND('',#169,.T.);
#107=FACE_OUTER_BOUND('',#170,.T.);
#108=FACE_OUTER_BOUND('',#171,.T.);
#109=FACE_OUTER_BOUND('',#172,.T.);
#110=FACE_OUTER_BOUND('',#173,.T.);
#111=FACE_OUTER_BOUND('',#174,.T.);
#112=FACE_OUTER_BOUND('',#175,.T.);
#113=FACE_OUTER_BOUND('',#176,.T.);
#114=FACE_OUTER_BOUND('',#177,.T.);
#115=FACE_OUTER_BOUND('',#178,.T.);
#116=FACE_OUTER_BOUND('',#179,.T.);
#117=FACE_OUTER_BOUND('',#180,.T.);
#118=FACE_OUTER_BOUND('',#181,.T.);
#119=FACE_OUTER_BOUND('',#182,.T.);
#120=FACE_OUTER_BOUND('',#183,.T.);
#121=FACE_OUTER_BOUND('',#184,.T.);
#122=FACE_OUTER_BOUND('',#185,.T.);
#123=FACE_OUTER_BOUND('',#186,.T.);
#124=FACE_OUTER_BOUND('',#187,.T.);
#125=FACE_OUTER_BOUND('',#188,.T.);
#126=FACE_OUTER_BOUND('',#189,.T.);
#127=FACE_OUTER_BOUND('',#190,.T.);
#128=FACE_OUTER_BOUND('',#191,.T.);
#129=FACE_OUTER_BOUND('',#192,.T.);
#130=FACE_OUTER_BOUND('',#193,.T.);
#131=FACE_OUTER_BOUND('',#194,.T.);
#132=FACE_OUTER_BOUND('',#195,.T.);
#133=FACE_OUTER_BOUND('',#196,.T.);
#134=FACE_OUTER_BOUND('',#197,.T.);
#135=FACE_OUTER_BOUND('',#198,.T.);
#136=FACE_OUTER_BOUND('',#199,.T.);
#137=FACE_OUTER_BOUND('',#200,.T.);
#138=EDGE_LOOP('',(#660,#661,#662,#663));
#139=EDGE_LOOP('',(#664,#665,#666,#667));
#140=EDGE_LOOP('',(#668,#669,#670,#671));
#141=EDGE_LOOP('',(#672,#673,#674,#675));
#142=EDGE_LOOP('',(#676,#677,#678,#679));
#143=EDGE_LOOP('',(#680,#681,#682,#683,#684,#685,#686,#687,#688,#689,#690,
#691,#692,#693));
#144=EDGE_LOOP('',(#694,#695,#696,#697));
#145=EDGE_LOOP('',(#698,#699,#700,#701));
#146=EDGE_LOOP('',(#702,#703,#704,#705,#706,#707,#708,#709));
#147=EDGE_LOOP('',(#710,#711,#712,#713,#714,#715,#716,#717));
#148=EDGE_LOOP('',(#718));
#149=EDGE_LOOP('',(#719));
#150=EDGE_LOOP('',(#720,#721,#722,#723));
#151=EDGE_LOOP('',(#724,#725,#726,#727));
#152=EDGE_LOOP('',(#728,#729,#730,#731,#732,#733,#734,#735));
#153=EDGE_LOOP('',(#736));
#154=EDGE_LOOP('',(#737));
#155=EDGE_LOOP('',(#738,#739,#740,#741));
#156=EDGE_LOOP('',(#742,#743,#744,#745,#746,#747,#748,#749));
#157=EDGE_LOOP('',(#750,#751,#752,#753,#754,#755,#756,#757));
#158=EDGE_LOOP('',(#758,#759,#760,#761));
#159=EDGE_LOOP('',(#762,#763,#764,#765));
#160=EDGE_LOOP('',(#766,#767,#768,#769));
#161=EDGE_LOOP('',(#770,#771,#772,#773,#774,#775,#776,#777));
#162=EDGE_LOOP('',(#778,#779,#780,#781));
#163=EDGE_LOOP('',(#782,#783,#784,#785));
#164=EDGE_LOOP('',(#786,#787,#788,#789,#790,#791));
#165=EDGE_LOOP('',(#792,#793,#794,#795));
#166=EDGE_LOOP('',(#796,#797,#798,#799));
#167=EDGE_LOOP('',(#800,#801,#802,#803));
#168=EDGE_LOOP('',(#804,#805,#806,#807));
#169=EDGE_LOOP('',(#808,#809,#810,#811));
#170=EDGE_LOOP('',(#812,#813,#814,#815));
#171=EDGE_LOOP('',(#816,#817,#818,#819));
#172=EDGE_LOOP('',(#820,#821,#822,#823));
#173=EDGE_LOOP('',(#824,#825,#826,#827));
#174=EDGE_LOOP('',(#828,#829,#830,#831));
#175=EDGE_LOOP('',(#832,#833,#834,#835));
#176=EDGE_LOOP('',(#836));
#177=EDGE_LOOP('',(#837,#838,#839,#840));
#178=EDGE_LOOP('',(#841));
#179=EDGE_LOOP('',(#842,#843,#844,#845));
#180=EDGE_LOOP('',(#846));
#181=EDGE_LOOP('',(#847,#848,#849,#850));
#182=EDGE_LOOP('',(#851));
#183=EDGE_LOOP('',(#852,#853,#854,#855));
#184=EDGE_LOOP('',(#856,#857,#858,#859,#860,#861,#862,#863));
#185=EDGE_LOOP('',(#864,#865,#866,#867));
#186=EDGE_LOOP('',(#868,#869,#870,#871));
#187=EDGE_LOOP('',(#872,#873,#874,#875,#876,#877,#878,#879));
#188=EDGE_LOOP('',(#880,#881,#882,#883));
#189=EDGE_LOOP('',(#884,#885,#886,#887));
#190=EDGE_LOOP('',(#888,#889,#890,#891));
#191=EDGE_LOOP('',(#892,#893,#894,#895));
#192=EDGE_LOOP('',(#896,#897,#898,#899));
#193=EDGE_LOOP('',(#900,#901,#902,#903));
#194=EDGE_LOOP('',(#904,#905,#906,#907));
#195=EDGE_LOOP('',(#908,#909,#910,#911));
#196=EDGE_LOOP('',(#912,#913,#914,#915));
#197=EDGE_LOOP('',(#916,#917,#918,#919));
#198=EDGE_LOOP('',(#920,#921,#922,#923));
#199=EDGE_LOOP('',(#924,#925,#926,#927,#928,#929,#930,#931,#932,#933,#934));
#200=EDGE_LOOP('',(#935,#936,#937,#938,#939,#940,#941,#942,#943,#944,#945));
#201=LINE('',#1467,#312);
#202=LINE('',#1469,#313);
#203=LINE('',#1471,#314);
#204=LINE('',#1472,#315);
#205=LINE('',#1476,#316);
#206=LINE('',#1478,#317);
#207=LINE('',#1480,#318);
#208=LINE('',#1481,#319);
#209=LINE('',#1483,#320);
#210=LINE('',#1484,#321);
#211=LINE('',#1486,#322);
#212=LINE('',#1492,#323);
#213=LINE('',#1495,#324);
#214=LINE('',#1498,#325);
#215=LINE('',#1502,#326);
#216=LINE('',#1504,#327);
#217=LINE('',#1506,#328);
#218=LINE('',#1508,#329);
#219=LINE('',#1512,#330);
#220=LINE('',#1516,#331);
#221=LINE('',#1518,#332);
#222=LINE('',#1520,#333);
#223=LINE('',#1521,#334);
#224=LINE('',#1524,#335);
#225=LINE('',#1525,#336);
#226=LINE('',#1531,#337);
#227=LINE('',#1534,#338);
#228=LINE('',#1537,#339);
#229=LINE('',#1539,#340);
#230=LINE('',#1541,#341);
#231=LINE('',#1543,#342);
#232=LINE('',#1545,#343);
#233=LINE('',#1548,#344);
#234=LINE('',#1550,#345);
#235=LINE('',#1552,#346);
#236=LINE('',#1554,#347);
#237=LINE('',#1555,#348);
#238=LINE('',#1563,#349);
#239=LINE('',#1566,#350);
#240=LINE('',#1569,#351);
#241=LINE('',#1572,#352);
#242=LINE('',#1574,#353);
#243=LINE('',#1575,#354);
#244=LINE('',#1576,#355);
#245=LINE('',#1582,#356);
#246=LINE('',#1585,#357);
#247=LINE('',#1587,#358);
#248=LINE('',#1588,#359);
#249=LINE('',#1591,#360);
#250=LINE('',#1595,#361);
#251=LINE('',#1599,#362);
#252=LINE('',#1603,#363);
#253=LINE('',#1606,#364);
#254=LINE('',#1611,#365);
#255=LINE('',#1613,#366);
#256=LINE('',#1617,#367);
#257=LINE('',#1619,#368);
#258=LINE('',#1621,#369);
#259=LINE('',#1622,#370);
#260=LINE('',#1625,#371);
#261=LINE('',#1627,#372);
#262=LINE('',#1628,#373);
#263=LINE('',#1629,#374);
#264=LINE('',#1632,#375);
#265=LINE('',#1634,#376);
#266=LINE('',#1635,#377);
#267=LINE('',#1637,#378);
#268=LINE('',#1638,#379);
#269=LINE('',#1640,#380);
#270=LINE('',#1643,#381);
#271=LINE('',#1644,#382);
#272=LINE('',#1646,#383);
#273=LINE('',#1648,#384);
#274=LINE('',#1650,#385);
#275=LINE('',#1652,#386);
#276=LINE('',#1654,#387);
#277=LINE('',#1656,#388);
#278=LINE('',#1660,#389);
#279=LINE('',#1665,#390);
#280=LINE('',#1670,#391);
#281=LINE('',#1675,#392);
#282=LINE('',#1680,#393);
#283=LINE('',#1681,#394);
#284=LINE('',#1684,#395);
#285=LINE('',#1685,#396);
#286=LINE('',#1687,#397);
#287=LINE('',#1694,#398);
#288=LINE('',#1696,#399);
#289=LINE('',#1698,#400);
#290=LINE('',#1699,#401);
#291=LINE('',#1702,#402);
#292=LINE('',#1704,#403);
#293=LINE('',#1705,#404);
#294=LINE('',#1708,#405);
#295=LINE('',#1710,#406);
#296=LINE('',#1711,#407);
#297=LINE('',#1717,#408);
#298=LINE('',#1723,#409);
#299=LINE('',#1726,#410);
#300=LINE('',#1728,#411);
#301=LINE('',#1729,#412);
#302=LINE('',#1732,#413);
#303=LINE('',#1734,#414);
#304=LINE('',#1735,#415);
#305=LINE('',#1738,#416);
#306=LINE('',#1740,#417);
#307=LINE('',#1741,#418);
#308=LINE('',#1747,#419);
#309=LINE('',#1750,#420);
#310=LINE('',#1752,#421);
#311=LINE('',#1753,#422);
#312=VECTOR('',#1169,10.);
#313=VECTOR('',#1170,10.);
#314=VECTOR('',#1171,10.);
#315=VECTOR('',#1172,10.);
#316=VECTOR('',#1175,10.);
#317=VECTOR('',#1176,10.);
#318=VECTOR('',#1177,10.);
#319=VECTOR('',#1178,10.);
#320=VECTOR('',#1181,10.);
#321=VECTOR('',#1182,10.);
#322=VECTOR('',#1185,10.);
#323=VECTOR('',#1190,10.);
#324=VECTOR('',#1193,10.);
#325=VECTOR('',#1196,10.);
#326=VECTOR('',#1199,10.);
#327=VECTOR('',#1200,10.);
#328=VECTOR('',#1201,10.);
#329=VECTOR('',#1202,10.);
#330=VECTOR('',#1205,10.);
#331=VECTOR('',#1208,10.);
#332=VECTOR('',#1209,10.);
#333=VECTOR('',#1210,10.);
#334=VECTOR('',#1211,10.);
#335=VECTOR('',#1214,10.);
#336=VECTOR('',#1215,10.);
#337=VECTOR('',#1220,10.);
#338=VECTOR('',#1223,10.);
#339=VECTOR('',#1226,10.);
#340=VECTOR('',#1227,10.);
#341=VECTOR('',#1228,10.);
#342=VECTOR('',#1229,10.);
#343=VECTOR('',#1230,10.);
#344=VECTOR('',#1233,10.);
#345=VECTOR('',#1236,10.);
#346=VECTOR('',#1237,10.);
#347=VECTOR('',#1238,10.);
#348=VECTOR('',#1239,10.);
#349=VECTOR('',#1248,10.);
#350=VECTOR('',#1251,10.);
#351=VECTOR('',#1254,10.);
#352=VECTOR('',#1257,10.);
#353=VECTOR('',#1258,10.);
#354=VECTOR('',#1259,10.);
#355=VECTOR('',#1260,10.);
#356=VECTOR('',#1267,10.);
#357=VECTOR('',#1270,10.);
#358=VECTOR('',#1271,10.);
#359=VECTOR('',#1272,10.);
#360=VECTOR('',#1273,10.);
#361=VECTOR('',#1276,10.);
#362=VECTOR('',#1279,10.);
#363=VECTOR('',#1282,10.);
#364=VECTOR('',#1287,10.);
#365=VECTOR('',#1292,10.);
#366=VECTOR('',#1295,10.);
#367=VECTOR('',#1298,10.);
#368=VECTOR('',#1299,10.);
#369=VECTOR('',#1300,10.);
#370=VECTOR('',#1301,10.);
#371=VECTOR('',#1304,10.);
#372=VECTOR('',#1305,10.);
#373=VECTOR('',#1306,10.);
#374=VECTOR('',#1307,10.);
#375=VECTOR('',#1310,10.);
#376=VECTOR('',#1311,10.);
#377=VECTOR('',#1312,10.);
#378=VECTOR('',#1315,10.);
#379=VECTOR('',#1316,10.);
#380=VECTOR('',#1319,10.);
#381=VECTOR('',#1324,10.);
#382=VECTOR('',#1325,10.);
#383=VECTOR('',#1328,10.);
#384=VECTOR('',#1331,10.);
#385=VECTOR('',#1334,10.);
#386=VECTOR('',#1337,10.);
#387=VECTOR('',#1340,10.);
#388=VECTOR('',#1343,10.);
#389=VECTOR('',#1348,1.5);
#390=VECTOR('',#1355,1.5);
#391=VECTOR('',#1362,1.5);
#392=VECTOR('',#1369,1.5);
#393=VECTOR('',#1376,10.);
#394=VECTOR('',#1377,10.);
#395=VECTOR('',#1380,10.);
#396=VECTOR('',#1381,10.);
#397=VECTOR('',#1384,10.);
#398=VECTOR('',#1393,10.);
#399=VECTOR('',#1394,10.);
#400=VECTOR('',#1395,10.);
#401=VECTOR('',#1396,10.);
#402=VECTOR('',#1399,10.);
#403=VECTOR('',#1400,10.);
#404=VECTOR('',#1401,10.);
#405=VECTOR('',#1404,10.);
#406=VECTOR('',#1405,10.);
#407=VECTOR('',#1406,10.);
#408=VECTOR('',#1413,10.);
#409=VECTOR('',#1420,10.);
#410=VECTOR('',#1423,10.);
#411=VECTOR('',#1424,10.);
#412=VECTOR('',#1425,10.);
#413=VECTOR('',#1428,10.);
#414=VECTOR('',#1429,10.);
#415=VECTOR('',#1430,10.);
#416=VECTOR('',#1433,10.);
#417=VECTOR('',#1434,10.);
#418=VECTOR('',#1435,10.);
#419=VECTOR('',#1442,10.);
#420=VECTOR('',#1445,10.);
#421=VECTOR('',#1446,10.);
#422=VECTOR('',#1447,10.);
#423=VERTEX_POINT('',#1465);
#424=VERTEX_POINT('',#1466);
#425=VERTEX_POINT('',#1468);
#426=VERTEX_POINT('',#1470);
#427=VERTEX_POINT('',#1474);
#428=VERTEX_POINT('',#1475);
#429=VERTEX_POINT('',#1477);
#430=VERTEX_POINT('',#1479);
#431=VERTEX_POINT('',#1488);
#432=VERTEX_POINT('',#1489);
#433=VERTEX_POINT('',#1491);
#434=VERTEX_POINT('',#1493);
#435=VERTEX_POINT('',#1497);
#436=VERTEX_POINT('',#1499);
#437=VERTEX_POINT('',#1501);
#438=VERTEX_POINT('',#1503);
#439=VERTEX_POINT('',#1505);
#440=VERTEX_POINT('',#1507);
#441=VERTEX_POINT('',#1509);
#442=VERTEX_POINT('',#1511);
#443=VERTEX_POINT('',#1513);
#444=VERTEX_POINT('',#1515);
#445=VERTEX_POINT('',#1517);
#446=VERTEX_POINT('',#1519);
#447=VERTEX_POINT('',#1523);
#448=VERTEX_POINT('',#1527);
#449=VERTEX_POINT('',#1528);
#450=VERTEX_POINT('',#1530);
#451=VERTEX_POINT('',#1532);
#452=VERTEX_POINT('',#1536);
#453=VERTEX_POINT('',#1538);
#454=VERTEX_POINT('',#1540);
#455=VERTEX_POINT('',#1542);
#456=VERTEX_POINT('',#1544);
#457=VERTEX_POINT('',#1546);
#458=VERTEX_POINT('',#1551);
#459=VERTEX_POINT('',#1553);
#460=VERTEX_POINT('',#1556);
#461=VERTEX_POINT('',#1558);
#462=VERTEX_POINT('',#1561);
#463=VERTEX_POINT('',#1565);
#464=VERTEX_POINT('',#1567);
#465=VERTEX_POINT('',#1571);
#466=VERTEX_POINT('',#1573);
#467=VERTEX_POINT('',#1577);
#468=VERTEX_POINT('',#1579);
#469=VERTEX_POINT('',#1584);
#470=VERTEX_POINT('',#1586);
#471=VERTEX_POINT('',#1589);
#472=VERTEX_POINT('',#1590);
#473=VERTEX_POINT('',#1592);
#474=VERTEX_POINT('',#1594);
#475=VERTEX_POINT('',#1596);
#476=VERTEX_POINT('',#1598);
#477=VERTEX_POINT('',#1600);
#478=VERTEX_POINT('',#1602);
#479=VERTEX_POINT('',#1608);
#480=VERTEX_POINT('',#1610);
#481=VERTEX_POINT('',#1615);
#482=VERTEX_POINT('',#1616);
#483=VERTEX_POINT('',#1618);
#484=VERTEX_POINT('',#1620);
#485=VERTEX_POINT('',#1624);
#486=VERTEX_POINT('',#1626);
#487=VERTEX_POINT('',#1631);
#488=VERTEX_POINT('',#1633);
#489=VERTEX_POINT('',#1659);
#490=VERTEX_POINT('',#1664);
#491=VERTEX_POINT('',#1669);
#492=VERTEX_POINT('',#1674);
#493=VERTEX_POINT('',#1679);
#494=VERTEX_POINT('',#1683);
#495=VERTEX_POINT('',#1692);
#496=VERTEX_POINT('',#1693);
#497=VERTEX_POINT('',#1695);
#498=VERTEX_POINT('',#1697);
#499=VERTEX_POINT('',#1701);
#500=VERTEX_POINT('',#1703);
#501=VERTEX_POINT('',#1707);
#502=VERTEX_POINT('',#1709);
#503=VERTEX_POINT('',#1713);
#504=VERTEX_POINT('',#1715);
#505=VERTEX_POINT('',#1719);
#506=VERTEX_POINT('',#1721);
#507=VERTEX_POINT('',#1725);
#508=VERTEX_POINT('',#1727);
#509=VERTEX_POINT('',#1731);
#510=VERTEX_POINT('',#1733);
#511=VERTEX_POINT('',#1737);
#512=VERTEX_POINT('',#1739);
#513=VERTEX_POINT('',#1743);
#514=VERTEX_POINT('',#1745);
#515=VERTEX_POINT('',#1749);
#516=VERTEX_POINT('',#1751);
#517=EDGE_CURVE('',#423,#424,#201,.T.);
#518=EDGE_CURVE('',#423,#425,#202,.T.);
#519=EDGE_CURVE('',#425,#426,#203,.T.);
#520=EDGE_CURVE('',#424,#426,#204,.T.);
#521=EDGE_CURVE('',#427,#428,#205,.T.);
#522=EDGE_CURVE('',#427,#429,#206,.T.);
#523=EDGE_CURVE('',#429,#430,#207,.T.);
#524=EDGE_CURVE('',#428,#430,#208,.T.);
#525=EDGE_CURVE('',#424,#427,#209,.T.);
#526=EDGE_CURVE('',#426,#429,#210,.T.);
#527=EDGE_CURVE('',#430,#425,#211,.T.);
#528=EDGE_CURVE('',#431,#432,#33,.T.);
#529=EDGE_CURVE('',#432,#433,#212,.T.);
#530=EDGE_CURVE('',#433,#434,#34,.T.);
#531=EDGE_CURVE('',#434,#431,#213,.T.);
#532=EDGE_CURVE('',#433,#435,#214,.T.);
#533=EDGE_CURVE('',#436,#435,#35,.T.);
#534=EDGE_CURVE('',#436,#437,#215,.T.);
#535=EDGE_CURVE('',#438,#437,#216,.T.);
#536=EDGE_CURVE('',#438,#439,#217,.T.);
#537=EDGE_CURVE('',#439,#440,#218,.T.);
#538=EDGE_CURVE('',#441,#440,#36,.T.);
#539=EDGE_CURVE('',#441,#442,#219,.T.);
#540=EDGE_CURVE('',#443,#442,#37,.T.);
#541=EDGE_CURVE('',#443,#444,#220,.T.);
#542=EDGE_CURVE('',#444,#445,#221,.T.);
#543=EDGE_CURVE('',#445,#446,#222,.T.);
#544=EDGE_CURVE('',#434,#446,#223,.T.);
#545=EDGE_CURVE('',#447,#432,#224,.T.);
#546=EDGE_CURVE('',#435,#447,#225,.T.);
#547=EDGE_CURVE('',#448,#449,#38,.T.);
#548=EDGE_CURVE('',#449,#450,#226,.T.);
#549=EDGE_CURVE('',#450,#451,#39,.T.);
#550=EDGE_CURVE('',#451,#448,#227,.T.);
#551=EDGE_CURVE('',#452,#450,#228,.T.);
#552=EDGE_CURVE('',#453,#452,#229,.T.);
#553=EDGE_CURVE('',#453,#454,#230,.T.);
#554=EDGE_CURVE('',#454,#455,#231,.T.);
#555=EDGE_CURVE('',#455,#456,#232,.T.);
#556=EDGE_CURVE('',#457,#456,#40,.T.);
#557=EDGE_CURVE('',#457,#451,#233,.T.);
#558=EDGE_CURVE('',#446,#452,#234,.T.);
#559=EDGE_CURVE('',#449,#458,#235,.T.);
#560=EDGE_CURVE('',#458,#459,#236,.T.);
#561=EDGE_CURVE('',#459,#431,#237,.T.);
#562=EDGE_CURVE('',#460,#460,#41,.T.);
#563=EDGE_CURVE('',#461,#461,#42,.T.);
#564=EDGE_CURVE('',#447,#462,#43,.T.);
#565=EDGE_CURVE('',#462,#436,#238,.T.);
#566=EDGE_CURVE('',#456,#463,#239,.T.);
#567=EDGE_CURVE('',#463,#464,#44,.T.);
#568=EDGE_CURVE('',#464,#457,#240,.T.);
#569=EDGE_CURVE('',#465,#462,#241,.T.);
#570=EDGE_CURVE('',#466,#465,#242,.T.);
#571=EDGE_CURVE('',#463,#466,#243,.T.);
#572=EDGE_CURVE('',#437,#455,#244,.T.);
#573=EDGE_CURVE('',#467,#467,#45,.T.);
#574=EDGE_CURVE('',#468,#468,#46,.T.);
#575=EDGE_CURVE('',#448,#464,#245,.T.);
#576=EDGE_CURVE('',#469,#459,#246,.T.);
#577=EDGE_CURVE('',#470,#469,#247,.T.);
#578=EDGE_CURVE('',#470,#465,#248,.T.);
#579=EDGE_CURVE('',#471,#472,#249,.T.);
#580=EDGE_CURVE('',#473,#472,#47,.T.);
#581=EDGE_CURVE('',#473,#474,#250,.T.);
#582=EDGE_CURVE('',#475,#474,#48,.T.);
#583=EDGE_CURVE('',#475,#476,#251,.T.);
#584=EDGE_CURVE('',#477,#476,#49,.T.);
#585=EDGE_CURVE('',#477,#478,#252,.T.);
#586=EDGE_CURVE('',#471,#478,#50,.T.);
#587=EDGE_CURVE('',#454,#438,#253,.T.);
#588=EDGE_CURVE('',#479,#444,#51,.T.);
#589=EDGE_CURVE('',#479,#480,#254,.T.);
#590=EDGE_CURVE('',#439,#480,#52,.T.);
#591=EDGE_CURVE('',#444,#439,#255,.T.);
#592=EDGE_CURVE('',#481,#482,#256,.T.);
#593=EDGE_CURVE('',#481,#483,#257,.T.);
#594=EDGE_CURVE('',#484,#483,#258,.T.);
#595=EDGE_CURVE('',#482,#484,#259,.T.);
#596=EDGE_CURVE('',#485,#423,#260,.T.);
#597=EDGE_CURVE('',#485,#486,#261,.T.);
#598=EDGE_CURVE('',#483,#486,#262,.T.);
#599=EDGE_CURVE('',#428,#481,#263,.T.);
#600=EDGE_CURVE('',#482,#487,#264,.T.);
#601=EDGE_CURVE('',#488,#484,#265,.T.);
#602=EDGE_CURVE('',#487,#488,#266,.T.);
#603=EDGE_CURVE('',#487,#485,#267,.T.);
#604=EDGE_CURVE('',#486,#488,#268,.T.);
#605=EDGE_CURVE('',#445,#453,#269,.T.);
#606=EDGE_CURVE('',#476,#439,#270,.T.);
#607=EDGE_CURVE('',#480,#477,#271,.T.);
#608=EDGE_CURVE('',#440,#475,#272,.T.);
#609=EDGE_CURVE('',#474,#441,#273,.T.);
#610=EDGE_CURVE('',#442,#473,#274,.T.);
#611=EDGE_CURVE('',#472,#443,#275,.T.);
#612=EDGE_CURVE('',#444,#471,#276,.T.);
#613=EDGE_CURVE('',#478,#479,#277,.T.);
#614=EDGE_CURVE('',#467,#489,#278,.T.);
#615=EDGE_CURVE('',#489,#489,#53,.T.);
#616=EDGE_CURVE('',#468,#490,#279,.T.);
#617=EDGE_CURVE('',#490,#490,#54,.T.);
#618=EDGE_CURVE('',#461,#491,#280,.T.);
#619=EDGE_CURVE('',#491,#491,#55,.T.);
#620=EDGE_CURVE('',#460,#492,#281,.T.);
#621=EDGE_CURVE('',#492,#492,#56,.T.);
#622=EDGE_CURVE('',#469,#493,#282,.T.);
#623=EDGE_CURVE('',#493,#458,#283,.T.);
#624=EDGE_CURVE('',#494,#466,#284,.T.);
#625=EDGE_CURVE('',#493,#494,#285,.T.);
#626=EDGE_CURVE('',#494,#470,#286,.T.);
#627=EDGE_CURVE('',#495,#496,#287,.T.);
#628=EDGE_CURVE('',#496,#497,#288,.T.);
#629=EDGE_CURVE('',#498,#497,#289,.T.);
#630=EDGE_CURVE('',#495,#498,#290,.T.);
#631=EDGE_CURVE('',#495,#499,#291,.T.);
#632=EDGE_CURVE('',#500,#498,#292,.T.);
#633=EDGE_CURVE('',#499,#500,#293,.T.);
#634=EDGE_CURVE('',#501,#499,#294,.T.);
#635=EDGE_CURVE('',#502,#500,#295,.T.);
#636=EDGE_CURVE('',#501,#502,#296,.T.);
#637=EDGE_CURVE('',#503,#501,#57,.T.);
#638=EDGE_CURVE('',#504,#502,#58,.T.);
#639=EDGE_CURVE('',#503,#504,#297,.T.);
#640=EDGE_CURVE('',#503,#505,#59,.T.);
#641=EDGE_CURVE('',#506,#504,#60,.T.);
#642=EDGE_CURVE('',#505,#506,#298,.T.);
#643=EDGE_CURVE('',#505,#507,#299,.T.);
#644=EDGE_CURVE('',#508,#506,#300,.T.);
#645=EDGE_CURVE('',#507,#508,#301,.T.);
#646=EDGE_CURVE('',#507,#509,#302,.T.);
#647=EDGE_CURVE('',#510,#508,#303,.T.);
#648=EDGE_CURVE('',#509,#510,#304,.T.);
#649=EDGE_CURVE('',#511,#509,#305,.T.);
#650=EDGE_CURVE('',#512,#510,#306,.T.);
#651=EDGE_CURVE('',#511,#512,#307,.T.);
#652=EDGE_CURVE('',#513,#511,#61,.T.);
#653=EDGE_CURVE('',#514,#512,#62,.T.);
#654=EDGE_CURVE('',#513,#514,#308,.T.);
#655=EDGE_CURVE('',#515,#513,#309,.T.);
#656=EDGE_CURVE('',#516,#514,#310,.T.);
#657=EDGE_CURVE('',#515,#516,#311,.T.);
#658=EDGE_CURVE('',#515,#496,#63,.T.);
#659=EDGE_CURVE('',#497,#516,#64,.T.);
#660=ORIENTED_EDGE('',*,*,#517,.F.);
#661=ORIENTED_EDGE('',*,*,#518,.T.);
#662=ORIENTED_EDGE('',*,*,#519,.T.);
#663=ORIENTED_EDGE('',*,*,#520,.F.);
#664=ORIENTED_EDGE('',*,*,#521,.F.);
#665=ORIENTED_EDGE('',*,*,#522,.T.);
#666=ORIENTED_EDGE('',*,*,#523,.T.);
#667=ORIENTED_EDGE('',*,*,#524,.F.);
#668=ORIENTED_EDGE('',*,*,#525,.F.);
#669=ORIENTED_EDGE('',*,*,#520,.T.);
#670=ORIENTED_EDGE('',*,*,#526,.T.);
#671=ORIENTED_EDGE('',*,*,#522,.F.);
#672=ORIENTED_EDGE('',*,*,#526,.F.);
#673=ORIENTED_EDGE('',*,*,#519,.F.);
#674=ORIENTED_EDGE('',*,*,#527,.F.);
#675=ORIENTED_EDGE('',*,*,#523,.F.);
#676=ORIENTED_EDGE('',*,*,#528,.T.);
#677=ORIENTED_EDGE('',*,*,#529,.T.);
#678=ORIENTED_EDGE('',*,*,#530,.T.);
#679=ORIENTED_EDGE('',*,*,#531,.T.);
#680=ORIENTED_EDGE('',*,*,#530,.F.);
#681=ORIENTED_EDGE('',*,*,#532,.T.);
#682=ORIENTED_EDGE('',*,*,#533,.F.);
#683=ORIENTED_EDGE('',*,*,#534,.T.);
#684=ORIENTED_EDGE('',*,*,#535,.F.);
#685=ORIENTED_EDGE('',*,*,#536,.T.);
#686=ORIENTED_EDGE('',*,*,#537,.T.);
#687=ORIENTED_EDGE('',*,*,#538,.F.);
#688=ORIENTED_EDGE('',*,*,#539,.T.);
#689=ORIENTED_EDGE('',*,*,#540,.F.);
#690=ORIENTED_EDGE('',*,*,#541,.T.);
#691=ORIENTED_EDGE('',*,*,#542,.T.);
#692=ORIENTED_EDGE('',*,*,#543,.T.);
#693=ORIENTED_EDGE('',*,*,#544,.F.);
#694=ORIENTED_EDGE('',*,*,#529,.F.);
#695=ORIENTED_EDGE('',*,*,#545,.F.);
#696=ORIENTED_EDGE('',*,*,#546,.F.);
#697=ORIENTED_EDGE('',*,*,#532,.F.);
#698=ORIENTED_EDGE('',*,*,#547,.T.);
#699=ORIENTED_EDGE('',*,*,#548,.T.);
#700=ORIENTED_EDGE('',*,*,#549,.T.);
#701=ORIENTED_EDGE('',*,*,#550,.T.);
#702=ORIENTED_EDGE('',*,*,#549,.F.);
#703=ORIENTED_EDGE('',*,*,#551,.F.);
#704=ORIENTED_EDGE('',*,*,#552,.F.);
#705=ORIENTED_EDGE('',*,*,#553,.T.);
#706=ORIENTED_EDGE('',*,*,#554,.T.);
#707=ORIENTED_EDGE('',*,*,#555,.T.);
#708=ORIENTED_EDGE('',*,*,#556,.F.);
#709=ORIENTED_EDGE('',*,*,#557,.T.);
#710=ORIENTED_EDGE('',*,*,#531,.F.);
#711=ORIENTED_EDGE('',*,*,#544,.T.);
#712=ORIENTED_EDGE('',*,*,#558,.T.);
#713=ORIENTED_EDGE('',*,*,#551,.T.);
#714=ORIENTED_EDGE('',*,*,#548,.F.);
#715=ORIENTED_EDGE('',*,*,#559,.T.);
#716=ORIENTED_EDGE('',*,*,#560,.T.);
#717=ORIENTED_EDGE('',*,*,#561,.T.);
#718=ORIENTED_EDGE('',*,*,#562,.T.);
#719=ORIENTED_EDGE('',*,*,#563,.T.);
#720=ORIENTED_EDGE('',*,*,#533,.T.);
#721=ORIENTED_EDGE('',*,*,#546,.T.);
#722=ORIENTED_EDGE('',*,*,#564,.T.);
#723=ORIENTED_EDGE('',*,*,#565,.T.);
#724=ORIENTED_EDGE('',*,*,#556,.T.);
#725=ORIENTED_EDGE('',*,*,#566,.T.);
#726=ORIENTED_EDGE('',*,*,#567,.T.);
#727=ORIENTED_EDGE('',*,*,#568,.T.);
#728=ORIENTED_EDGE('',*,*,#565,.F.);
#729=ORIENTED_EDGE('',*,*,#569,.F.);
#730=ORIENTED_EDGE('',*,*,#570,.F.);
#731=ORIENTED_EDGE('',*,*,#571,.F.);
#732=ORIENTED_EDGE('',*,*,#566,.F.);
#733=ORIENTED_EDGE('',*,*,#555,.F.);
#734=ORIENTED_EDGE('',*,*,#572,.F.);
#735=ORIENTED_EDGE('',*,*,#534,.F.);
#736=ORIENTED_EDGE('',*,*,#573,.F.);
#737=ORIENTED_EDGE('',*,*,#574,.F.);
#738=ORIENTED_EDGE('',*,*,#550,.F.);
#739=ORIENTED_EDGE('',*,*,#557,.F.);
#740=ORIENTED_EDGE('',*,*,#568,.F.);
#741=ORIENTED_EDGE('',*,*,#575,.F.);
#742=ORIENTED_EDGE('',*,*,#528,.F.);
#743=ORIENTED_EDGE('',*,*,#561,.F.);
#744=ORIENTED_EDGE('',*,*,#576,.F.);
#745=ORIENTED_EDGE('',*,*,#577,.F.);
#746=ORIENTED_EDGE('',*,*,#578,.T.);
#747=ORIENTED_EDGE('',*,*,#569,.T.);
#748=ORIENTED_EDGE('',*,*,#564,.F.);
#749=ORIENTED_EDGE('',*,*,#545,.T.);
#750=ORIENTED_EDGE('',*,*,#579,.T.);
#751=ORIENTED_EDGE('',*,*,#580,.F.);
#752=ORIENTED_EDGE('',*,*,#581,.T.);
#753=ORIENTED_EDGE('',*,*,#582,.F.);
#754=ORIENTED_EDGE('',*,*,#583,.T.);
#755=ORIENTED_EDGE('',*,*,#584,.F.);
#756=ORIENTED_EDGE('',*,*,#585,.T.);
#757=ORIENTED_EDGE('',*,*,#586,.F.);
#758=ORIENTED_EDGE('',*,*,#572,.T.);
#759=ORIENTED_EDGE('',*,*,#554,.F.);
#760=ORIENTED_EDGE('',*,*,#587,.T.);
#761=ORIENTED_EDGE('',*,*,#535,.T.);
#762=ORIENTED_EDGE('',*,*,#588,.F.);
#763=ORIENTED_EDGE('',*,*,#589,.T.);
#764=ORIENTED_EDGE('',*,*,#590,.F.);
#765=ORIENTED_EDGE('',*,*,#591,.F.);
#766=ORIENTED_EDGE('',*,*,#592,.F.);
#767=ORIENTED_EDGE('',*,*,#593,.T.);
#768=ORIENTED_EDGE('',*,*,#594,.F.);
#769=ORIENTED_EDGE('',*,*,#595,.F.);
#770=ORIENTED_EDGE('',*,*,#596,.F.);
#771=ORIENTED_EDGE('',*,*,#597,.T.);
#772=ORIENTED_EDGE('',*,*,#598,.F.);
#773=ORIENTED_EDGE('',*,*,#593,.F.);
#774=ORIENTED_EDGE('',*,*,#599,.F.);
#775=ORIENTED_EDGE('',*,*,#524,.T.);
#776=ORIENTED_EDGE('',*,*,#527,.T.);
#777=ORIENTED_EDGE('',*,*,#518,.F.);
#778=ORIENTED_EDGE('',*,*,#600,.F.);
#779=ORIENTED_EDGE('',*,*,#595,.T.);
#780=ORIENTED_EDGE('',*,*,#601,.F.);
#781=ORIENTED_EDGE('',*,*,#602,.F.);
#782=ORIENTED_EDGE('',*,*,#603,.F.);
#783=ORIENTED_EDGE('',*,*,#602,.T.);
#784=ORIENTED_EDGE('',*,*,#604,.F.);
#785=ORIENTED_EDGE('',*,*,#597,.F.);
#786=ORIENTED_EDGE('',*,*,#587,.F.);
#787=ORIENTED_EDGE('',*,*,#553,.F.);
#788=ORIENTED_EDGE('',*,*,#605,.F.);
#789=ORIENTED_EDGE('',*,*,#542,.F.);
#790=ORIENTED_EDGE('',*,*,#591,.T.);
#791=ORIENTED_EDGE('',*,*,#536,.F.);
#792=ORIENTED_EDGE('',*,*,#598,.T.);
#793=ORIENTED_EDGE('',*,*,#604,.T.);
#794=ORIENTED_EDGE('',*,*,#601,.T.);
#795=ORIENTED_EDGE('',*,*,#594,.T.);
#796=ORIENTED_EDGE('',*,*,#605,.T.);
#797=ORIENTED_EDGE('',*,*,#552,.T.);
#798=ORIENTED_EDGE('',*,*,#558,.F.);
#799=ORIENTED_EDGE('',*,*,#543,.F.);
#800=ORIENTED_EDGE('',*,*,#584,.T.);
#801=ORIENTED_EDGE('',*,*,#606,.T.);
#802=ORIENTED_EDGE('',*,*,#590,.T.);
#803=ORIENTED_EDGE('',*,*,#607,.T.);
#804=ORIENTED_EDGE('',*,*,#606,.F.);
#805=ORIENTED_EDGE('',*,*,#583,.F.);
#806=ORIENTED_EDGE('',*,*,#608,.F.);
#807=ORIENTED_EDGE('',*,*,#537,.F.);
#808=ORIENTED_EDGE('',*,*,#582,.T.);
#809=ORIENTED_EDGE('',*,*,#609,.T.);
#810=ORIENTED_EDGE('',*,*,#538,.T.);
#811=ORIENTED_EDGE('',*,*,#608,.T.);
#812=ORIENTED_EDGE('',*,*,#609,.F.);
#813=ORIENTED_EDGE('',*,*,#581,.F.);
#814=ORIENTED_EDGE('',*,*,#610,.F.);
#815=ORIENTED_EDGE('',*,*,#539,.F.);
#816=ORIENTED_EDGE('',*,*,#580,.T.);
#817=ORIENTED_EDGE('',*,*,#611,.T.);
#818=ORIENTED_EDGE('',*,*,#540,.T.);
#819=ORIENTED_EDGE('',*,*,#610,.T.);
#820=ORIENTED_EDGE('',*,*,#611,.F.);
#821=ORIENTED_EDGE('',*,*,#579,.F.);
#822=ORIENTED_EDGE('',*,*,#612,.F.);
#823=ORIENTED_EDGE('',*,*,#541,.F.);
#824=ORIENTED_EDGE('',*,*,#586,.T.);
#825=ORIENTED_EDGE('',*,*,#613,.T.);
#826=ORIENTED_EDGE('',*,*,#588,.T.);
#827=ORIENTED_EDGE('',*,*,#612,.T.);
#828=ORIENTED_EDGE('',*,*,#607,.F.);
#829=ORIENTED_EDGE('',*,*,#589,.F.);
#830=ORIENTED_EDGE('',*,*,#613,.F.);
#831=ORIENTED_EDGE('',*,*,#585,.F.);
#832=ORIENTED_EDGE('',*,*,#573,.T.);
#833=ORIENTED_EDGE('',*,*,#614,.T.);
#834=ORIENTED_EDGE('',*,*,#615,.T.);
#835=ORIENTED_EDGE('',*,*,#614,.F.);
#836=ORIENTED_EDGE('',*,*,#615,.F.);
#837=ORIENTED_EDGE('',*,*,#574,.T.);
#838=ORIENTED_EDGE('',*,*,#616,.T.);
#839=ORIENTED_EDGE('',*,*,#617,.T.);
#840=ORIENTED_EDGE('',*,*,#616,.F.);
#841=ORIENTED_EDGE('',*,*,#617,.F.);
#842=ORIENTED_EDGE('',*,*,#563,.F.);
#843=ORIENTED_EDGE('',*,*,#618,.T.);
#844=ORIENTED_EDGE('',*,*,#619,.T.);
#845=ORIENTED_EDGE('',*,*,#618,.F.);
#846=ORIENTED_EDGE('',*,*,#619,.F.);
#847=ORIENTED_EDGE('',*,*,#562,.F.);
#848=ORIENTED_EDGE('',*,*,#620,.T.);
#849=ORIENTED_EDGE('',*,*,#621,.T.);
#850=ORIENTED_EDGE('',*,*,#620,.F.);
#851=ORIENTED_EDGE('',*,*,#621,.F.);
#852=ORIENTED_EDGE('',*,*,#622,.F.);
#853=ORIENTED_EDGE('',*,*,#576,.T.);
#854=ORIENTED_EDGE('',*,*,#560,.F.);
#855=ORIENTED_EDGE('',*,*,#623,.F.);
#856=ORIENTED_EDGE('',*,*,#547,.F.);
#857=ORIENTED_EDGE('',*,*,#575,.T.);
#858=ORIENTED_EDGE('',*,*,#567,.F.);
#859=ORIENTED_EDGE('',*,*,#571,.T.);
#860=ORIENTED_EDGE('',*,*,#624,.F.);
#861=ORIENTED_EDGE('',*,*,#625,.F.);
#862=ORIENTED_EDGE('',*,*,#623,.T.);
#863=ORIENTED_EDGE('',*,*,#559,.F.);
#864=ORIENTED_EDGE('',*,*,#570,.T.);
#865=ORIENTED_EDGE('',*,*,#578,.F.);
#866=ORIENTED_EDGE('',*,*,#626,.F.);
#867=ORIENTED_EDGE('',*,*,#624,.T.);
#868=ORIENTED_EDGE('',*,*,#577,.T.);
#869=ORIENTED_EDGE('',*,*,#622,.T.);
#870=ORIENTED_EDGE('',*,*,#625,.T.);
#871=ORIENTED_EDGE('',*,*,#626,.T.);
#872=ORIENTED_EDGE('',*,*,#521,.T.);
#873=ORIENTED_EDGE('',*,*,#599,.T.);
#874=ORIENTED_EDGE('',*,*,#592,.T.);
#875=ORIENTED_EDGE('',*,*,#600,.T.);
#876=ORIENTED_EDGE('',*,*,#603,.T.);
#877=ORIENTED_EDGE('',*,*,#596,.T.);
#878=ORIENTED_EDGE('',*,*,#517,.T.);
#879=ORIENTED_EDGE('',*,*,#525,.T.);
#880=ORIENTED_EDGE('',*,*,#627,.T.);
#881=ORIENTED_EDGE('',*,*,#628,.T.);
#882=ORIENTED_EDGE('',*,*,#629,.F.);
#883=ORIENTED_EDGE('',*,*,#630,.F.);
#884=ORIENTED_EDGE('',*,*,#631,.F.);
#885=ORIENTED_EDGE('',*,*,#630,.T.);
#886=ORIENTED_EDGE('',*,*,#632,.F.);
#887=ORIENTED_EDGE('',*,*,#633,.F.);
#888=ORIENTED_EDGE('',*,*,#634,.T.);
#889=ORIENTED_EDGE('',*,*,#633,.T.);
#890=ORIENTED_EDGE('',*,*,#635,.F.);
#891=ORIENTED_EDGE('',*,*,#636,.F.);
#892=ORIENTED_EDGE('',*,*,#637,.T.);
#893=ORIENTED_EDGE('',*,*,#636,.T.);
#894=ORIENTED_EDGE('',*,*,#638,.F.);
#895=ORIENTED_EDGE('',*,*,#639,.F.);
#896=ORIENTED_EDGE('',*,*,#640,.F.);
#897=ORIENTED_EDGE('',*,*,#639,.T.);
#898=ORIENTED_EDGE('',*,*,#641,.F.);
#899=ORIENTED_EDGE('',*,*,#642,.F.);
#900=ORIENTED_EDGE('',*,*,#643,.F.);
#901=ORIENTED_EDGE('',*,*,#642,.T.);
#902=ORIENTED_EDGE('',*,*,#644,.F.);
#903=ORIENTED_EDGE('',*,*,#645,.F.);
#904=ORIENTED_EDGE('',*,*,#646,.F.);
#905=ORIENTED_EDGE('',*,*,#645,.T.);
#906=ORIENTED_EDGE('',*,*,#647,.F.);
#907=ORIENTED_EDGE('',*,*,#648,.F.);
#908=ORIENTED_EDGE('',*,*,#649,.T.);
#909=ORIENTED_EDGE('',*,*,#648,.T.);
#910=ORIENTED_EDGE('',*,*,#650,.F.);
#911=ORIENTED_EDGE('',*,*,#651,.F.);
#912=ORIENTED_EDGE('',*,*,#652,.T.);
#913=ORIENTED_EDGE('',*,*,#651,.T.);
#914=ORIENTED_EDGE('',*,*,#653,.F.);
#915=ORIENTED_EDGE('',*,*,#654,.F.);
#916=ORIENTED_EDGE('',*,*,#655,.T.);
#917=ORIENTED_EDGE('',*,*,#654,.T.);
#918=ORIENTED_EDGE('',*,*,#656,.F.);
#919=ORIENTED_EDGE('',*,*,#657,.F.);
#920=ORIENTED_EDGE('',*,*,#658,.F.);
#921=ORIENTED_EDGE('',*,*,#657,.T.);
#922=ORIENTED_EDGE('',*,*,#659,.F.);
#923=ORIENTED_EDGE('',*,*,#628,.F.);
#924=ORIENTED_EDGE('',*,*,#658,.T.);
#925=ORIENTED_EDGE('',*,*,#627,.F.);
#926=ORIENTED_EDGE('',*,*,#631,.T.);
#927=ORIENTED_EDGE('',*,*,#634,.F.);
#928=ORIENTED_EDGE('',*,*,#637,.F.);
#929=ORIENTED_EDGE('',*,*,#640,.T.);
#930=ORIENTED_EDGE('',*,*,#643,.T.);
#931=ORIENTED_EDGE('',*,*,#646,.T.);
#932=ORIENTED_EDGE('',*,*,#649,.F.);
#933=ORIENTED_EDGE('',*,*,#652,.F.);
#934=ORIENTED_EDGE('',*,*,#655,.F.);
#935=ORIENTED_EDGE('',*,*,#659,.T.);
#936=ORIENTED_EDGE('',*,*,#656,.T.);
#937=ORIENTED_EDGE('',*,*,#653,.T.);
#938=ORIENTED_EDGE('',*,*,#650,.T.);
#939=ORIENTED_EDGE('',*,*,#647,.T.);
#940=ORIENTED_EDGE('',*,*,#644,.T.);
#941=ORIENTED_EDGE('',*,*,#641,.T.);
#942=ORIENTED_EDGE('',*,*,#638,.T.);
#943=ORIENTED_EDGE('',*,*,#635,.T.);
#944=ORIENTED_EDGE('',*,*,#632,.T.);
#945=ORIENTED_EDGE('',*,*,#629,.T.);
#946=PLANE('',#1071);
#947=PLANE('',#1072);
#948=PLANE('',#1073);
#949=PLANE('',#1074);
#950=PLANE('',#1078);
#951=PLANE('',#1082);
#952=PLANE('',#1086);
#953=PLANE('',#1088);
#954=PLANE('',#1095);
#955=PLANE('',#1098);
#956=PLANE('',#1099);
#957=PLANE('',#1104);
#958=PLANE('',#1105);
#959=PLANE('',#1108);
#960=PLANE('',#1109);
#961=PLANE('',#1110);
#962=PLANE('',#1111);
#963=PLANE('',#1112);
#964=PLANE('',#1113);
#965=PLANE('',#1115);
#966=PLANE('',#1117);
#967=PLANE('',#1119);
#968=PLANE('',#1121);
#969=PLANE('',#1124);
#970=PLANE('',#1127);
#971=PLANE('',#1130);
#972=PLANE('',#1133);
#973=PLANE('',#1134);
#974=PLANE('',#1135);
#975=PLANE('',#1136);
#976=PLANE('',#1137);
#977=PLANE('',#1138);
#978=PLANE('',#1140);
#979=PLANE('',#1141);
#980=PLANE('',#1142);
#981=PLANE('',#1149);
#982=PLANE('',#1150);
#983=PLANE('',#1151);
#984=PLANE('',#1155);
#985=PLANE('',#1159);
#986=PLANE('',#1160);
#987=ADVANCED_FACE('',(#81),#946,.F.);
#988=ADVANCED_FACE('',(#82),#947,.F.);
#989=ADVANCED_FACE('',(#83),#948,.F.);
#990=ADVANCED_FACE('',(#84),#949,.F.);
#991=ADVANCED_FACE('',(#85),#65,.T.);
#992=ADVANCED_FACE('',(#86),#950,.T.);
#993=ADVANCED_FACE('',(#87),#951,.F.);
#994=ADVANCED_FACE('',(#88),#66,.T.);
#995=ADVANCED_FACE('',(#89),#952,.T.);
#996=ADVANCED_FACE('',(#90,#27,#28),#953,.T.);
#997=ADVANCED_FACE('',(#91),#67,.F.);
#998=ADVANCED_FACE('',(#92),#68,.F.);
#999=ADVANCED_FACE('',(#93,#29,#30),#954,.F.);
#1000=ADVANCED_FACE('',(#94),#955,.F.);
#1001=ADVANCED_FACE('',(#95,#31),#956,.T.);
#1002=ADVANCED_FACE('',(#96),#957,.T.);
#1003=ADVANCED_FACE('',(#97),#958,.T.);
#1004=ADVANCED_FACE('',(#98),#959,.T.);
#1005=ADVANCED_FACE('',(#99),#960,.T.);
#1006=ADVANCED_FACE('',(#100),#961,.T.);
#1007=ADVANCED_FACE('',(#101),#962,.T.);
#1008=ADVANCED_FACE('',(#102,#32),#963,.T.);
#1009=ADVANCED_FACE('',(#103),#964,.T.);
#1010=ADVANCED_FACE('',(#104),#69,.F.);
#1011=ADVANCED_FACE('',(#105),#965,.F.);
#1012=ADVANCED_FACE('',(#106),#70,.F.);
#1013=ADVANCED_FACE('',(#107),#966,.F.);
#1014=ADVANCED_FACE('',(#108),#71,.F.);
#1015=ADVANCED_FACE('',(#109),#967,.F.);
#1016=ADVANCED_FACE('',(#110),#72,.F.);
#1017=ADVANCED_FACE('',(#111),#968,.F.);
#1018=ADVANCED_FACE('',(#112),#73,.F.);
#1019=ADVANCED_FACE('',(#113),#969,.T.);
#1020=ADVANCED_FACE('',(#114),#74,.F.);
#1021=ADVANCED_FACE('',(#115),#970,.T.);
#1022=ADVANCED_FACE('',(#116),#75,.F.);
#1023=ADVANCED_FACE('',(#117),#971,.T.);
#1024=ADVANCED_FACE('',(#118),#76,.F.);
#1025=ADVANCED_FACE('',(#119),#972,.T.);
#1026=ADVANCED_FACE('',(#120),#973,.T.);
#1027=ADVANCED_FACE('',(#121),#974,.T.);
#1028=ADVANCED_FACE('',(#122),#975,.T.);
#1029=ADVANCED_FACE('',(#123),#976,.F.);
#1030=ADVANCED_FACE('',(#124),#977,.T.);
#1031=ADVANCED_FACE('',(#125),#978,.T.);
#1032=ADVANCED_FACE('',(#126),#979,.T.);
#1033=ADVANCED_FACE('',(#127),#980,.T.);
#1034=ADVANCED_FACE('',(#128),#77,.F.);
#1035=ADVANCED_FACE('',(#129),#78,.T.);
#1036=ADVANCED_FACE('',(#130),#981,.T.);
#1037=ADVANCED_FACE('',(#131),#982,.T.);
#1038=ADVANCED_FACE('',(#132),#983,.T.);
#1039=ADVANCED_FACE('',(#133),#79,.F.);
#1040=ADVANCED_FACE('',(#134),#984,.T.);
#1041=ADVANCED_FACE('',(#135),#80,.T.);
#1042=ADVANCED_FACE('',(#136),#985,.T.);
#1043=ADVANCED_FACE('',(#137),#986,.F.);
#1044=CLOSED_SHELL('',(#987,#988,#989,#990,#991,#992,#993,#994,#995,#996,
#997,#998,#999,#1000,#1001,#1002,#1003,#1004,#1005,#1006,#1007,#1008,#1009,
#1010,#1011,#1012,#1013,#1014,#1015,#1016,#1017,#1018,#1019,#1020,#1021,
#1022,#1023,#1024,#1025,#1026,#1027,#1028,#1029,#1030));
#1045=CLOSED_SHELL('',(#1031,#1032,#1033,#1034,#1035,#1036,#1037,#1038,
#1039,#1040,#1041,#1042,#1043));
#1046=DERIVED_UNIT_ELEMENT(#1050,1.);
#1047=DERIVED_UNIT_ELEMENT(#1770,-3.);
#1048=DERIVED_UNIT_ELEMENT(#1050,1.);
#1049=DERIVED_UNIT_ELEMENT(#1770,-3.);
#1050=(
MASS_UNIT()
NAMED_UNIT(*)
SI_UNIT(.KILO.,.GRAM.)
);
#1051=DERIVED_UNIT((#1046,#1047));
#1052=DERIVED_UNIT((#1048,#1049));
#1053=MEASURE_REPRESENTATION_ITEM('density measure',
POSITIVE_RATIO_MEASURE(7850.),#1051);
#1054=MEASURE_REPRESENTATION_ITEM('density measure',
POSITIVE_RATIO_MEASURE(7850.),#1052);
#1055=PROPERTY_DEFINITION_REPRESENTATION(#1065,#1059);
#1056=PROPERTY_DEFINITION_REPRESENTATION(#1066,#1060);
#1057=PROPERTY_DEFINITION_REPRESENTATION(#1067,#1061);
#1058=PROPERTY_DEFINITION_REPRESENTATION(#1068,#1062);
#1059=REPRESENTATION('material name',(#1063),#1766);
#1060=REPRESENTATION('density',(#1053),#1766);
#1061=REPRESENTATION('material name',(#1064),#1767);
#1062=REPRESENTATION('density',(#1054),#1767);
#1063=DESCRIPTIVE_REPRESENTATION_ITEM('\X2\92FC\X0\','\X2\92FC\X0\');
#1064=DESCRIPTIVE_REPRESENTATION_ITEM('\X2\92FC\X0\','\X2\92FC\X0\');
#1065=PROPERTY_DEFINITION('material property','material name',#1786);
#1066=PROPERTY_DEFINITION('material property','density of part',#1786);
#1067=PROPERTY_DEFINITION('material property','material name',#1787);
#1068=PROPERTY_DEFINITION('material property','density of part',#1787);
#1069=AXIS2_PLACEMENT_3D('',#1462,#1163,#1164);
#1070=AXIS2_PLACEMENT_3D('',#1463,#1165,#1166);
#1071=AXIS2_PLACEMENT_3D('',#1464,#1167,#1168);
#1072=AXIS2_PLACEMENT_3D('',#1473,#1173,#1174);
#1073=AXIS2_PLACEMENT_3D('',#1482,#1179,#1180);
#1074=AXIS2_PLACEMENT_3D('',#1485,#1183,#1184);
#1075=AXIS2_PLACEMENT_3D('',#1487,#1186,#1187);
#1076=AXIS2_PLACEMENT_3D('',#1490,#1188,#1189);
#1077=AXIS2_PLACEMENT_3D('',#1494,#1191,#1192);
#1078=AXIS2_PLACEMENT_3D('',#1496,#1194,#1195);
#1079=AXIS2_PLACEMENT_3D('',#1500,#1197,#1198);
#1080=AXIS2_PLACEMENT_3D('',#1510,#1203,#1204);
#1081=AXIS2_PLACEMENT_3D('',#1514,#1206,#1207);
#1082=AXIS2_PLACEMENT_3D('',#1522,#1212,#1213);
#1083=AXIS2_PLACEMENT_3D('',#1526,#1216,#1217);
#1084=AXIS2_PLACEMENT_3D('',#1529,#1218,#1219);
#1085=AXIS2_PLACEMENT_3D('',#1533,#1221,#1222);
#1086=AXIS2_PLACEMENT_3D('',#1535,#1224,#1225);
#1087=AXIS2_PLACEMENT_3D('',#1547,#1231,#1232);
#1088=AXIS2_PLACEMENT_3D('',#1549,#1234,#1235);
#1089=AXIS2_PLACEMENT_3D('',#1557,#1240,#1241);
#1090=AXIS2_PLACEMENT_3D('',#1559,#1242,#1243);
#1091=AXIS2_PLACEMENT_3D('',#1560,#1244,#1245);
#1092=AXIS2_PLACEMENT_3D('',#1562,#1246,#1247);
#1093=AXIS2_PLACEMENT_3D('',#1564,#1249,#1250);
#1094=AXIS2_PLACEMENT_3D('',#1568,#1252,#1253);
#1095=AXIS2_PLACEMENT_3D('',#1570,#1255,#1256);
#1096=AXIS2_PLACEMENT_3D('',#1578,#1261,#1262);
#1097=AXIS2_PLACEMENT_3D('',#1580,#1263,#1264);
#1098=AXIS2_PLACEMENT_3D('',#1581,#1265,#1266);
#1099=AXIS2_PLACEMENT_3D('',#1583,#1268,#1269);
#1100=AXIS2_PLACEMENT_3D('',#1593,#1274,#1275);
#1101=AXIS2_PLACEMENT_3D('',#1597,#1277,#1278);
#1102=AXIS2_PLACEMENT_3D('',#1601,#1280,#1281);
#1103=AXIS2_PLACEMENT_3D('',#1604,#1283,#1284);
#1104=AXIS2_PLACEMENT_3D('',#1605,#1285,#1286);
#1105=AXIS2_PLACEMENT_3D('',#1607,#1288,#1289);
#1106=AXIS2_PLACEMENT_3D('',#1609,#1290,#1291);
#1107=AXIS2_PLACEMENT_3D('',#1612,#1293,#1294);
#1108=AXIS2_PLACEMENT_3D('',#1614,#1296,#1297);
#1109=AXIS2_PLACEMENT_3D('',#1623,#1302,#1303);
#1110=AXIS2_PLACEMENT_3D('',#1630,#1308,#1309);
#1111=AXIS2_PLACEMENT_3D('',#1636,#1313,#1314);
#1112=AXIS2_PLACEMENT_3D('',#1639,#1317,#1318);
#1113=AXIS2_PLACEMENT_3D('',#1641,#1320,#1321);
#1114=AXIS2_PLACEMENT_3D('',#1642,#1322,#1323);
#1115=AXIS2_PLACEMENT_3D('',#1645,#1326,#1327);
#1116=AXIS2_PLACEMENT_3D('',#1647,#1329,#1330);
#1117=AXIS2_PLACEMENT_3D('',#1649,#1332,#1333);
#1118=AXIS2_PLACEMENT_3D('',#1651,#1335,#1336);
#1119=AXIS2_PLACEMENT_3D('',#1653,#1338,#1339);
#1120=AXIS2_PLACEMENT_3D('',#1655,#1341,#1342);
#1121=AXIS2_PLACEMENT_3D('',#1657,#1344,#1345);
#1122=AXIS2_PLACEMENT_3D('',#1658,#1346,#1347);
#1123=AXIS2_PLACEMENT_3D('',#1661,#1349,#1350);
#1124=AXIS2_PLACEMENT_3D('',#1662,#1351,#1352);
#1125=AXIS2_PLACEMENT_3D('',#1663,#1353,#1354);
#1126=AXIS2_PLACEMENT_3D('',#1666,#1356,#1357);
#1127=AXIS2_PLACEMENT_3D('',#1667,#1358,#1359);
#1128=AXIS2_PLACEMENT_3D('',#1668,#1360,#1361);
#1129=AXIS2_PLACEMENT_3D('',#1671,#1363,#1364);
#1130=AXIS2_PLACEMENT_3D('',#1672,#1365,#1366);
#1131=AXIS2_PLACEMENT_3D('',#1673,#1367,#1368);
#1132=AXIS2_PLACEMENT_3D('',#1676,#1370,#1371);
#1133=AXIS2_PLACEMENT_3D('',#1677,#1372,#1373);
#1134=AXIS2_PLACEMENT_3D('',#1678,#1374,#1375);
#1135=AXIS2_PLACEMENT_3D('',#1682,#1378,#1379);
#1136=AXIS2_PLACEMENT_3D('',#1686,#1382,#1383);
#1137=AXIS2_PLACEMENT_3D('',#1688,#1385,#1386);
#1138=AXIS2_PLACEMENT_3D('',#1689,#1387,#1388);
#1139=AXIS2_PLACEMENT_3D('',#1690,#1389,#1390);
#1140=AXIS2_PLACEMENT_3D('',#1691,#1391,#1392);
#1141=AXIS2_PLACEMENT_3D('',#1700,#1397,#1398);
#1142=AXIS2_PLACEMENT_3D('',#1706,#1402,#1403);
#1143=AXIS2_PLACEMENT_3D('',#1712,#1407,#1408);
#1144=AXIS2_PLACEMENT_3D('',#1714,#1409,#1410);
#1145=AXIS2_PLACEMENT_3D('',#1716,#1411,#1412);
#1146=AXIS2_PLACEMENT_3D('',#1718,#1414,#1415);
#1147=AXIS2_PLACEMENT_3D('',#1720,#1416,#1417);
#1148=AXIS2_PLACEMENT_3D('',#1722,#1418,#1419);
#1149=AXIS2_PLACEMENT_3D('',#1724,#1421,#1422);
#1150=AXIS2_PLACEMENT_3D('',#1730,#1426,#1427);
#1151=AXIS2_PLACEMENT_3D('',#1736,#1431,#1432);
#1152=AXIS2_PLACEMENT_3D('',#1742,#1436,#1437);
#1153=AXIS2_PLACEMENT_3D('',#1744,#1438,#1439);
#1154=AXIS2_PLACEMENT_3D('',#1746,#1440,#1441);
#1155=AXIS2_PLACEMENT_3D('',#1748,#1443,#1444);
#1156=AXIS2_PLACEMENT_3D('',#1754,#1448,#1449);
#1157=AXIS2_PLACEMENT_3D('',#1755,#1450,#1451);
#1158=AXIS2_PLACEMENT_3D('',#1756,#1452,#1453);
#1159=AXIS2_PLACEMENT_3D('',#1757,#1454,#1455);
#1160=AXIS2_PLACEMENT_3D('',#1758,#1456,#1457);
#1161=AXIS2_PLACEMENT_3D('',#1759,#1458,#1459);
#1162=AXIS2_PLACEMENT_3D('',#1760,#1460,#1461);
#1163=DIRECTION('axis',(0.,0.,1.));
#1164=DIRECTION('refdir',(1.,0.,0.));
#1165=DIRECTION('axis',(0.,0.,1.));
#1166=DIRECTION('refdir',(1.,0.,0.));
#1167=DIRECTION('center_axis',(-1.,0.,0.));
#1168=DIRECTION('ref_axis',(0.,1.,0.));
#1169=DIRECTION('',(0.,1.,0.));
#1170=DIRECTION('',(0.,0.,-1.));
#1171=DIRECTION('',(0.,1.,0.));
#1172=DIRECTION('',(0.,0.,-1.));
#1173=DIRECTION('center_axis',(1.,0.,0.));
#1174=DIRECTION('ref_axis',(0.,-1.,0.));
#1175=DIRECTION('',(0.,-1.,0.));
#1176=DIRECTION('',(0.,0.,-1.));
#1177=DIRECTION('',(0.,-1.,0.));
#1178=DIRECTION('',(0.,0.,-1.));
#1179=DIRECTION('center_axis',(0.,1.,0.));
#1180=DIRECTION('ref_axis',(1.,0.,0.));
#1181=DIRECTION('',(1.,0.,0.));
#1182=DIRECTION('',(1.,0.,0.));
#1183=DIRECTION('center_axis',(0.,0.,-1.));
#1184=DIRECTION('ref_axis',(-1.,0.,0.));
#1185=DIRECTION('',(-1.,0.,0.));
#1186=DIRECTION('center_axis',(0.,1.,0.));
#1187=DIRECTION('ref_axis',(0.707106781186547,0.,0.707106781186548));
#1188=DIRECTION('center_axis',(0.,1.,0.));
#1189=DIRECTION('ref_axis',(0.707106781186547,0.,0.707106781186548));
#1190=DIRECTION('',(0.,1.,0.));
#1191=DIRECTION('center_axis',(-7.04903507698512E-17,-1.,0.));
#1192=DIRECTION('ref_axis',(0.707106781186547,0.,0.707106781186548));
#1193=DIRECTION('',(0.,-1.,0.));
#1194=DIRECTION('center_axis',(7.04903507698512E-17,1.,0.));
#1195=DIRECTION('ref_axis',(-1.,7.04903507698512E-17,0.));
#1196=DIRECTION('',(-1.00929365875014E-16,7.1145464035084E-33,-1.));
#1197=DIRECTION('center_axis',(7.04903507698512E-17,1.,0.));
#1198=DIRECTION('ref_axis',(-0.707106781186547,0.,-0.707106781186547));
#1199=DIRECTION('',(1.,-7.04903507698512E-17,6.25477760352201E-17));
#1200=DIRECTION('',(0.,0.,1.));
#1201=DIRECTION('',(-1.,7.04903507698512E-17,0.));
#1202=DIRECTION('',(0.,0.,1.));
#1203=DIRECTION('center_axis',(7.04903507698512E-17,1.,0.));
#1204=DIRECTION('ref_axis',(0.707106781186548,0.,0.707106781186548));
#1205=DIRECTION('',(-1.,7.04903507698512E-17,0.));
#1206=DIRECTION('center_axis',(7.04903507698512E-17,1.,0.));
#1207=DIRECTION('ref_axis',(-0.707106781186549,0.,0.707106781186546));
#1208=DIRECTION('',(0.,0.,-1.));
#1209=DIRECTION('',(-1.,7.04903507698512E-17,0.));
#1210=DIRECTION('',(0.,0.,1.));
#1211=DIRECTION('',(-1.,7.04903507698512E-17,0.));
#1212=DIRECTION('center_axis',(-1.,0.,1.00929365875014E-16));
#1213=DIRECTION('ref_axis',(-1.00929365875014E-16,0.,-1.));
#1214=DIRECTION('',(1.00929365875014E-16,0.,1.));
#1215=DIRECTION('',(0.,-1.,0.));
#1216=DIRECTION('center_axis',(0.,1.,0.));
#1217=DIRECTION('ref_axis',(0.707106781186547,0.,0.707106781186548));
#1218=DIRECTION('center_axis',(6.0834138335625E-17,-1.,0.));
#1219=DIRECTION('ref_axis',(0.707106781186547,0.,0.707106781186548));
#1220=DIRECTION('',(0.,-1.,0.));
#1221=DIRECTION('center_axis',(0.,1.,0.));
#1222=DIRECTION('ref_axis',(0.707106781186547,0.,0.707106781186548));
#1223=DIRECTION('',(0.,1.,0.));
#1224=DIRECTION('center_axis',(0.,-1.,0.));
#1225=DIRECTION('ref_axis',(1.,0.,0.));
#1226=DIRECTION('',(1.,0.,0.));
#1227=DIRECTION('',(0.,0.,1.));
#1228=DIRECTION('',(1.,0.,0.));
#1229=DIRECTION('',(0.,0.,1.));
#1230=DIRECTION('',(-1.,0.,-6.25477760352201E-17));
#1231=DIRECTION('center_axis',(0.,-1.,0.));
#1232=DIRECTION('ref_axis',(-0.707106781186547,0.,-0.707106781186547));
#1233=DIRECTION('',(1.00929365875014E-16,0.,1.));
#1234=DIRECTION('center_axis',(0.,0.,1.));
#1235=DIRECTION('ref_axis',(1.,0.,0.));
#1236=DIRECTION('',(1.75876914792104E-16,1.,0.));
#1237=DIRECTION('',(-1.,-6.0834138335625E-17,0.));
#1238=DIRECTION('',(0.,-1.,0.));
#1239=DIRECTION('',(1.,0.,0.));
#1240=DIRECTION('center_axis',(0.,0.,-1.));
#1241=DIRECTION('ref_axis',(-1.,0.,0.));
#1242=DIRECTION('center_axis',(0.,0.,-1.));
#1243=DIRECTION('ref_axis',(-1.,0.,0.));
#1244=DIRECTION('center_axis',(0.,-1.,0.));
#1245=DIRECTION('ref_axis',(-0.707106781186547,0.,-0.707106781186547));
#1246=DIRECTION('center_axis',(0.,-1.,0.));
#1247=DIRECTION('ref_axis',(-0.707106781186547,0.,-0.707106781186547));
#1248=DIRECTION('',(0.,1.,0.));
#1249=DIRECTION('center_axis',(0.,-1.,0.));
#1250=DIRECTION('ref_axis',(-0.707106781186547,0.,-0.707106781186547));
#1251=DIRECTION('',(0.,1.,0.));
#1252=DIRECTION('center_axis',(-6.0834138335625E-17,1.,0.));
#1253=DIRECTION('ref_axis',(-0.707106781186547,0.,-0.707106781186547));
#1254=DIRECTION('',(0.,-1.,0.));
#1255=DIRECTION('center_axis',(6.25477760352201E-17,0.,-1.));
#1256=DIRECTION('ref_axis',(1.,0.,6.25477760352201E-17));
#1257=DIRECTION('',(-1.,0.,-6.25477760352201E-17));
#1258=DIRECTION('',(0.,-1.,0.));
#1259=DIRECTION('',(1.,6.0834138335625E-17,6.25477760352201E-17));
#1260=DIRECTION('',(-1.75876914792104E-16,1.,-1.1000709876182E-32));
#1261=DIRECTION('center_axis',(-6.25477760352201E-17,0.,1.));
#1262=DIRECTION('ref_axis',(-1.,0.,0.));
#1263=DIRECTION('center_axis',(-6.25477760352201E-17,0.,1.));
#1264=DIRECTION('ref_axis',(-1.,0.,0.));
#1265=DIRECTION('center_axis',(-1.,0.,1.00929365875014E-16));
#1266=DIRECTION('ref_axis',(-1.00929365875014E-16,0.,-1.));
#1267=DIRECTION('',(-1.00929365875014E-16,-6.13995100576752E-33,-1.));
#1268=DIRECTION('center_axis',(0.,-1.,0.));
#1269=DIRECTION('ref_axis',(1.,0.,0.));
#1270=DIRECTION('',(0.,0.,1.));
#1271=DIRECTION('',(-1.,0.,0.));
#1272=DIRECTION('',(0.,0.,1.));
#1273=DIRECTION('',(0.,0.,1.));
#1274=DIRECTION('center_axis',(0.,-1.,0.));
#1275=DIRECTION('ref_axis',(-0.707106781186549,0.,0.707106781186546));
#1276=DIRECTION('',(1.,0.,0.));
#1277=DIRECTION('center_axis',(0.,-1.,0.));
#1278=DIRECTION('ref_axis',(0.707106781186548,0.,0.707106781186548));
#1279=DIRECTION('',(0.,0.,-1.));
#1280=DIRECTION('center_axis',(0.,-1.,0.));
#1281=DIRECTION('ref_axis',(0.707106781186548,0.,-0.707106781186547));
#1282=DIRECTION('',(-1.,0.,0.));
#1283=DIRECTION('center_axis',(0.,-1.,0.));
#1284=DIRECTION('ref_axis',(-0.707106781186549,0.,-0.707106781186546));
#1285=DIRECTION('center_axis',(-1.,-1.75876914792104E-16,0.));
#1286=DIRECTION('ref_axis',(1.75876914792104E-16,-1.,0.));
#1287=DIRECTION('',(1.75876914792104E-16,-1.,0.));
#1288=DIRECTION('center_axis',(-7.04903507698512E-17,-1.,0.));
#1289=DIRECTION('ref_axis',(1.,-7.04903507698512E-17,0.));
#1290=DIRECTION('center_axis',(7.04903507698512E-17,1.,0.));
#1291=DIRECTION('ref_axis',(-0.707106781186549,0.,-0.707106781186546));
#1292=DIRECTION('',(1.,-7.04903507698512E-17,0.));
#1293=DIRECTION('center_axis',(7.04903507698512E-17,1.,0.));
#1294=DIRECTION('ref_axis',(0.707106781186548,0.,-0.707106781186547));
#1295=DIRECTION('',(1.,-7.04903507698512E-17,0.));
#1296=DIRECTION('center_axis',(-1.,0.,0.));
#1297=DIRECTION('ref_axis',(0.,-1.,0.));
#1298=DIRECTION('',(0.,1.,0.));
#1299=DIRECTION('',(0.,0.,1.));
#1300=DIRECTION('',(0.,-1.,0.));
#1301=DIRECTION('',(0.,0.,1.));
#1302=DIRECTION('center_axis',(0.,1.,0.));
#1303=DIRECTION('ref_axis',(-1.,0.,0.));
#1304=DIRECTION('',(1.,0.,0.));
#1305=DIRECTION('',(0.,0.,1.));
#1306=DIRECTION('',(-1.,0.,0.));
#1307=DIRECTION('',(1.,0.,0.));
#1308=DIRECTION('center_axis',(-7.52693576017055E-17,-1.,0.));
#1309=DIRECTION('ref_axis',(1.,-7.52693576017055E-17,0.));
#1310=DIRECTION('',(-1.,7.52693576017055E-17,0.));
#1311=DIRECTION('',(1.,-7.52693576017055E-17,0.));
#1312=DIRECTION('',(0.,0.,1.));
#1313=DIRECTION('center_axis',(1.,0.,0.));
#1314=DIRECTION('ref_axis',(0.,1.,0.));
#1315=DIRECTION('',(0.,-1.,0.));
#1316=DIRECTION('',(0.,1.,0.));
#1317=DIRECTION('center_axis',(0.,0.,1.));
#1318=DIRECTION('ref_axis',(1.,0.,0.));
#1319=DIRECTION('',(1.75876914792104E-16,1.,0.));
#1320=DIRECTION('center_axis',(1.,-1.75876914792104E-16,0.));
#1321=DIRECTION('ref_axis',(1.75876914792104E-16,1.,0.));
#1322=DIRECTION('center_axis',(0.,1.,0.));
#1323=DIRECTION('ref_axis',(0.707106781186548,0.,-0.707106781186547));
#1324=DIRECTION('',(0.,1.,0.));
#1325=DIRECTION('',(0.,-1.,0.));
#1326=DIRECTION('center_axis',(1.,0.,0.));
#1327=DIRECTION('ref_axis',(0.,0.,-1.));
#1328=DIRECTION('',(0.,-1.,0.));
#1329=DIRECTION('center_axis',(0.,1.,0.));
#1330=DIRECTION('ref_axis',(0.707106781186548,0.,0.707106781186548));
#1331=DIRECTION('',(0.,1.,0.));
#1332=DIRECTION('center_axis',(0.,0.,1.));
#1333=DIRECTION('ref_axis',(1.,0.,0.));
#1334=DIRECTION('',(0.,-1.,0.));
#1335=DIRECTION('center_axis',(0.,1.,0.));
#1336=DIRECTION('ref_axis',(-0.707106781186549,0.,0.707106781186546));
#1337=DIRECTION('',(0.,1.,0.));
#1338=DIRECTION('center_axis',(-1.,0.,0.));
#1339=DIRECTION('ref_axis',(0.,0.,1.));
#1340=DIRECTION('',(0.,-1.,0.));
#1341=DIRECTION('center_axis',(0.,1.,0.));
#1342=DIRECTION('ref_axis',(-0.707106781186549,0.,-0.707106781186546));
#1343=DIRECTION('',(0.,1.,0.));
#1344=DIRECTION('center_axis',(0.,0.,-1.));
#1345=DIRECTION('ref_axis',(-1.,0.,0.));
#1346=DIRECTION('center_axis',(0.,0.,-1.));
#1347=DIRECTION('ref_axis',(-1.,0.,0.));
#1348=DIRECTION('',(0.,0.,-1.));
#1349=DIRECTION('center_axis',(0.,0.,-1.));
#1350=DIRECTION('ref_axis',(-1.,0.,0.));
#1351=DIRECTION('center_axis',(0.,0.,1.));
#1352=DIRECTION('ref_axis',(-1.,0.,0.));
#1353=DIRECTION('center_axis',(0.,0.,-1.));
#1354=DIRECTION('ref_axis',(-1.,0.,0.));
#1355=DIRECTION('',(0.,0.,-1.));
#1356=DIRECTION('center_axis',(0.,0.,-1.));
#1357=DIRECTION('ref_axis',(-1.,0.,0.));
#1358=DIRECTION('center_axis',(0.,0.,1.));
#1359=DIRECTION('ref_axis',(-1.,0.,0.));
#1360=DIRECTION('center_axis',(0.,0.,-1.));
#1361=DIRECTION('ref_axis',(-1.,0.,0.));
#1362=DIRECTION('',(0.,0.,-1.));
#1363=DIRECTION('center_axis',(0.,0.,-1.));
#1364=DIRECTION('ref_axis',(-1.,0.,0.));
#1365=DIRECTION('center_axis',(0.,0.,1.));
#1366=DIRECTION('ref_axis',(-1.,0.,0.));
#1367=DIRECTION('center_axis',(0.,0.,-1.));
#1368=DIRECTION('ref_axis',(-1.,0.,0.));
#1369=DIRECTION('',(0.,0.,-1.));
#1370=DIRECTION('center_axis',(0.,0.,-1.));
#1371=DIRECTION('ref_axis',(-1.,0.,0.));
#1372=DIRECTION('center_axis',(0.,0.,1.));
#1373=DIRECTION('ref_axis',(-1.,0.,0.));
#1374=DIRECTION('center_axis',(-1.,0.,0.));
#1375=DIRECTION('ref_axis',(0.,-1.,0.));
#1376=DIRECTION('',(0.,1.,0.));
#1377=DIRECTION('',(0.,0.,1.));
#1378=DIRECTION('center_axis',(-6.0834138335625E-17,1.,0.));
#1379=DIRECTION('ref_axis',(-1.,-6.0834138335625E-17,0.));
#1380=DIRECTION('',(0.,0.,1.));
#1381=DIRECTION('',(1.,6.0834138335625E-17,0.));
#1382=DIRECTION('center_axis',(1.,0.,0.));
#1383=DIRECTION('ref_axis',(0.,1.,0.));
#1384=DIRECTION('',(0.,-1.,0.));
#1385=DIRECTION('center_axis',(0.,0.,1.));
#1386=DIRECTION('ref_axis',(1.,0.,0.));
#1387=DIRECTION('center_axis',(0.,0.,1.));
#1388=DIRECTION('ref_axis',(1.,0.,0.));
#1389=DIRECTION('axis',(0.,0.,1.));
#1390=DIRECTION('refdir',(1.,0.,0.));
#1391=DIRECTION('center_axis',(6.72862439166761E-17,0.,-1.));
#1392=DIRECTION('ref_axis',(-1.,0.,-6.72862439166761E-17));
#1393=DIRECTION('',(-1.,0.,-6.72862439166761E-17));
#1394=DIRECTION('',(0.,1.,0.));
#1395=DIRECTION('',(-1.,0.,-6.72862439166761E-17));
#1396=DIRECTION('',(0.,1.,0.));
#1397=DIRECTION('center_axis',(1.,0.,0.));
#1398=DIRECTION('ref_axis',(0.,0.,-1.));
#1399=DIRECTION('',(0.,0.,1.));
#1400=DIRECTION('',(0.,0.,-1.));
#1401=DIRECTION('',(0.,1.,0.));
#1402=DIRECTION('center_axis',(-2.73540945149601E-16,0.,1.));
#1403=DIRECTION('ref_axis',(1.,0.,2.73540945149601E-16));
#1404=DIRECTION('',(1.,0.,2.73540945149601E-16));
#1405=DIRECTION('',(1.,0.,2.73540945149601E-16));
#1406=DIRECTION('',(0.,1.,0.));
#1407=DIRECTION('center_axis',(0.,1.,0.));
#1408=DIRECTION('ref_axis',(-0.74001675779737,0.,-0.672588431493635));
#1409=DIRECTION('center_axis',(0.,-1.,0.));
#1410=DIRECTION('ref_axis',(1.,0.,0.));
#1411=DIRECTION('center_axis',(0.,-1.,0.));
#1412=DIRECTION('ref_axis',(1.,0.,0.));
#1413=DIRECTION('',(0.,1.,0.));
#1414=DIRECTION('center_axis',(0.,1.,0.));
#1415=DIRECTION('ref_axis',(1.,0.,0.));
#1416=DIRECTION('center_axis',(0.,-1.,0.));
#1417=DIRECTION('ref_axis',(1.,0.,0.));
#1418=DIRECTION('center_axis',(0.,1.,0.));
#1419=DIRECTION('ref_axis',(1.,0.,0.));
#1420=DIRECTION('',(0.,1.,0.));
#1421=DIRECTION('center_axis',(6.24544234824748E-17,0.,1.));
#1422=DIRECTION('ref_axis',(1.,0.,-6.24544234824748E-17));
#1423=DIRECTION('',(-1.,0.,6.24544234824748E-17));
#1424=DIRECTION('',(1.,0.,-6.24544234824748E-17));
#1425=DIRECTION('',(0.,1.,0.));
#1426=DIRECTION('center_axis',(-1.,0.,0.));
#1427=DIRECTION('ref_axis',(0.,0.,1.));
#1428=DIRECTION('',(0.,0.,-1.));
#1429=DIRECTION('',(0.,0.,1.));
#1430=DIRECTION('',(0.,1.,0.));
#1431=DIRECTION('center_axis',(0.,0.,-1.));
#1432=DIRECTION('ref_axis',(-1.,0.,0.));
#1433=DIRECTION('',(-1.,0.,0.));
#1434=DIRECTION('',(-1.,0.,0.));
#1435=DIRECTION('',(0.,1.,0.));
#1436=DIRECTION('center_axis',(0.,1.,0.));
#1437=DIRECTION('ref_axis',(1.,0.,0.));
#1438=DIRECTION('center_axis',(0.,-1.,0.));
#1439=DIRECTION('ref_axis',(1.,0.,0.));
#1440=DIRECTION('center_axis',(0.,-1.,0.));
#1441=DIRECTION('ref_axis',(1.,0.,0.));
#1442=DIRECTION('',(0.,1.,0.));
#1443=DIRECTION('center_axis',(-1.,0.,5.55111512312575E-16));
#1444=DIRECTION('ref_axis',(5.55111512312575E-16,0.,1.));
#1445=DIRECTION('',(5.55111512312575E-16,0.,1.));
#1446=DIRECTION('',(5.55111512312575E-16,0.,1.));
#1447=DIRECTION('',(0.,1.,0.));
#1448=DIRECTION('center_axis',(0.,1.,0.));
#1449=DIRECTION('ref_axis',(-1.,0.,0.));
#1450=DIRECTION('center_axis',(0.,-1.,0.));
#1451=DIRECTION('ref_axis',(-1.,0.,0.));
#1452=DIRECTION('center_axis',(0.,1.,0.));
#1453=DIRECTION('ref_axis',(-1.,0.,0.));
#1454=DIRECTION('center_axis',(0.,-1.,0.));
#1455=DIRECTION('ref_axis',(1.,0.,0.));
#1456=DIRECTION('center_axis',(0.,-1.,0.));
#1457=DIRECTION('ref_axis',(1.,0.,0.));
#1458=DIRECTION('',(0.,0.,1.));
#1459=DIRECTION('',(1.,0.,0.));
#1460=DIRECTION('',(0.,0.,1.));
#1461=DIRECTION('',(1.,0.,0.));
#1462=CARTESIAN_POINT('',(0.,0.,0.));
#1463=CARTESIAN_POINT('',(0.,0.,0.));
#1464=CARTESIAN_POINT('Origin',(-48.,-46.5,3.));
#1465=CARTESIAN_POINT('',(-48.,-46.5,3.));
#1466=CARTESIAN_POINT('',(-48.,14.5,3.));
#1467=CARTESIAN_POINT('',(-48.,-23.25,3.));
#1468=CARTESIAN_POINT('',(-48.,-46.5,1.));
#1469=CARTESIAN_POINT('',(-48.,-46.5,3.));
#1470=CARTESIAN_POINT('',(-48.,14.5,1.));
#1471=CARTESIAN_POINT('',(-48.,-46.5,1.));
#1472=CARTESIAN_POINT('',(-48.,14.5,3.));
#1473=CARTESIAN_POINT('Origin',(-18.,14.5,3.));
#1474=CARTESIAN_POINT('',(-18.,14.5,3.));
#1475=CARTESIAN_POINT('',(-18.,-46.5,3.));
#1476=CARTESIAN_POINT('',(-18.,7.25,3.));
#1477=CARTESIAN_POINT('',(-18.,14.5,1.));
#1478=CARTESIAN_POINT('',(-18.,14.5,3.));
#1479=CARTESIAN_POINT('',(-18.,-46.5,1.));
#1480=CARTESIAN_POINT('',(-18.,14.5,1.));
#1481=CARTESIAN_POINT('',(-18.,-46.5,3.));
#1482=CARTESIAN_POINT('Origin',(-48.,14.5,3.));
#1483=CARTESIAN_POINT('',(-24.,14.5,3.));
#1484=CARTESIAN_POINT('',(-48.,14.5,1.));
#1485=CARTESIAN_POINT('Origin',(-33.,-16.,1.));
#1486=CARTESIAN_POINT('',(59.,-46.5,1.));
#1487=CARTESIAN_POINT('Origin',(-2.99999999999997,30.25,19.));
#1488=CARTESIAN_POINT('',(-2.99999999999997,-60.5,24.));
#1489=CARTESIAN_POINT('',(2.00000000000003,-60.5,19.));
#1490=CARTESIAN_POINT('Origin',(-2.99999999999997,-60.5,19.));
#1491=CARTESIAN_POINT('',(2.00000000000003,-50.5,19.));
#1492=CARTESIAN_POINT('',(2.00000000000003,30.25,19.));
#1493=CARTESIAN_POINT('',(-2.99999999999997,-50.5,24.));
#1494=CARTESIAN_POINT('Origin',(-2.99999999999997,-50.5,19.));
#1495=CARTESIAN_POINT('',(-2.99999999999997,30.25,24.));
#1496=CARTESIAN_POINT('Origin',(63.,-50.5,0.));
#1497=CARTESIAN_POINT('',(2.00000000000003,-50.5,18.));
#1498=CARTESIAN_POINT('',(2.00000000000003,-50.5,12.));
#1499=CARTESIAN_POINT('',(7.00000000000003,-50.5,13.));
#1500=CARTESIAN_POINT('Origin',(7.00000000000003,-50.5,18.));
#1501=CARTESIAN_POINT('',(63.,-50.5,13.));
#1502=CARTESIAN_POINT('',(32.5,-50.5,13.));
#1503=CARTESIAN_POINT('',(63.,-50.5,5.));
#1504=CARTESIAN_POINT('',(63.,-50.5,0.));
#1505=CARTESIAN_POINT('',(-18.,-50.5,5.));
#1506=CARTESIAN_POINT('',(31.5,-50.5,5.));
#1507=CARTESIAN_POINT('',(-18.,-50.5,16.));
#1508=CARTESIAN_POINT('',(-18.,-50.5,9.));
#1509=CARTESIAN_POINT('',(-20.,-50.5,18.));
#1510=CARTESIAN_POINT('Origin',(-20.,-50.5,16.));
#1511=CARTESIAN_POINT('',(-46.,-50.5,18.));
#1512=CARTESIAN_POINT('',(7.5,-50.5,18.));
#1513=CARTESIAN_POINT('',(-48.,-50.5,16.));
#1514=CARTESIAN_POINT('Origin',(-46.,-50.5,16.));
#1515=CARTESIAN_POINT('',(-48.,-50.5,5.));
#1516=CARTESIAN_POINT('',(-48.,-50.5,1.5));
#1517=CARTESIAN_POINT('',(-63.,-50.5,5.));
#1518=CARTESIAN_POINT('',(31.5,-50.5,5.));
#1519=CARTESIAN_POINT('',(-63.,-50.5,24.));
#1520=CARTESIAN_POINT('',(-63.,-50.5,0.));
#1521=CARTESIAN_POINT('',(-63.,-50.5,24.));
#1522=CARTESIAN_POINT('Origin',(2.00000000000003,60.5,24.));
#1523=CARTESIAN_POINT('',(2.00000000000003,-60.5,18.));
#1524=CARTESIAN_POINT('',(2.00000000000003,-60.5,12.));
#1525=CARTESIAN_POINT('',(2.00000000000003,60.5,18.));
#1526=CARTESIAN_POINT('Origin',(-2.99999999999997,30.25,19.));
#1527=CARTESIAN_POINT('',(2.00000000000003,60.5,19.));
#1528=CARTESIAN_POINT('',(-2.99999999999997,60.5,24.));
#1529=CARTESIAN_POINT('Origin',(-2.99999999999997,60.5,19.));
#1530=CARTESIAN_POINT('',(-2.99999999999997,50.5,24.));
#1531=CARTESIAN_POINT('',(-2.99999999999997,30.25,24.));
#1532=CARTESIAN_POINT('',(2.00000000000003,50.5,19.));
#1533=CARTESIAN_POINT('Origin',(-2.99999999999997,50.5,19.));
#1534=CARTESIAN_POINT('',(2.00000000000003,30.25,19.));
#1535=CARTESIAN_POINT('Origin',(-63.,50.5,0.));
#1536=CARTESIAN_POINT('',(-63.,50.5,24.));
#1537=CARTESIAN_POINT('',(63.,50.5,24.));
#1538=CARTESIAN_POINT('',(-63.,50.5,5.));
#1539=CARTESIAN_POINT('',(-63.,50.5,0.));
#1540=CARTESIAN_POINT('',(63.,50.5,5.));
#1541=CARTESIAN_POINT('',(-31.5,50.5,5.));
#1542=CARTESIAN_POINT('',(63.,50.5,13.));
#1543=CARTESIAN_POINT('',(63.,50.5,0.));
#1544=CARTESIAN_POINT('',(7.00000000000003,50.5,13.));
#1545=CARTESIAN_POINT('',(-30.5,50.5,13.));
#1546=CARTESIAN_POINT('',(2.00000000000003,50.5,18.));
#1547=CARTESIAN_POINT('Origin',(7.00000000000003,50.5,18.));
#1548=CARTESIAN_POINT('',(2.00000000000003,50.5,12.));
#1549=CARTESIAN_POINT('Origin',(1.77635683940025E-14,8.88178419700125E-15,
24.));
#1550=CARTESIAN_POINT('',(-63.,50.5,24.));
#1551=CARTESIAN_POINT('',(-73.,60.5,24.));
#1552=CARTESIAN_POINT('',(-73.,60.5,24.));
#1553=CARTESIAN_POINT('',(-73.,-60.5,24.));
#1554=CARTESIAN_POINT('',(-73.,-60.5,24.));
#1555=CARTESIAN_POINT('',(73.,-60.5,24.));
#1556=CARTESIAN_POINT('',(-66.5,55.5,24.));
#1557=CARTESIAN_POINT('Origin',(-68.,55.5,24.));
#1558=CARTESIAN_POINT('',(-66.5,-55.5,24.));
#1559=CARTESIAN_POINT('Origin',(-68.,-55.5,24.));
#1560=CARTESIAN_POINT('Origin',(7.00000000000003,60.5,18.));
#1561=CARTESIAN_POINT('',(7.00000000000003,-60.5,13.));
#1562=CARTESIAN_POINT('Origin',(7.00000000000003,-60.5,18.));
#1563=CARTESIAN_POINT('',(7.00000000000003,60.5,13.));
#1564=CARTESIAN_POINT('Origin',(7.00000000000003,60.5,18.));
#1565=CARTESIAN_POINT('',(7.00000000000003,60.5,13.));
#1566=CARTESIAN_POINT('',(7.00000000000003,60.5,13.));
#1567=CARTESIAN_POINT('',(2.00000000000003,60.5,18.));
#1568=CARTESIAN_POINT('Origin',(7.00000000000003,60.5,18.));
#1569=CARTESIAN_POINT('',(2.00000000000003,60.5,18.));
#1570=CARTESIAN_POINT('Origin',(2.00000000000003,60.5,13.));
#1571=CARTESIAN_POINT('',(73.,-60.5,13.));
#1572=CARTESIAN_POINT('',(-35.5,-60.5,13.));
#1573=CARTESIAN_POINT('',(73.,60.5,13.));
#1574=CARTESIAN_POINT('',(73.,8.88178419700125E-15,13.));
#1575=CARTESIAN_POINT('',(37.5,60.5,13.));
#1576=CARTESIAN_POINT('',(63.,55.5,13.));
#1577=CARTESIAN_POINT('',(69.5,-55.5,13.));
#1578=CARTESIAN_POINT('Origin',(68.,-55.5,13.));
#1579=CARTESIAN_POINT('',(69.5,55.5,13.));
#1580=CARTESIAN_POINT('Origin',(68.,55.5,13.));
#1581=CARTESIAN_POINT('Origin',(2.00000000000003,60.5,24.));
#1582=CARTESIAN_POINT('',(2.00000000000003,60.5,12.));
#1583=CARTESIAN_POINT('Origin',(-73.,-60.5,0.));
#1584=CARTESIAN_POINT('',(-73.,-60.5,0.));
#1585=CARTESIAN_POINT('',(-73.,-60.5,0.));
#1586=CARTESIAN_POINT('',(73.,-60.5,0.));
#1587=CARTESIAN_POINT('',(73.,-60.5,0.));
#1588=CARTESIAN_POINT('',(73.,-60.5,0.));
#1589=CARTESIAN_POINT('',(-48.,-60.5,5.));
#1590=CARTESIAN_POINT('',(-48.,-60.5,16.));
#1591=CARTESIAN_POINT('',(-48.,-60.5,1.5));
#1592=CARTESIAN_POINT('',(-46.,-60.5,18.));
#1593=CARTESIAN_POINT('Origin',(-46.,-60.5,16.));
#1594=CARTESIAN_POINT('',(-20.,-60.5,18.));
#1595=CARTESIAN_POINT('',(-60.5,-60.5,18.));
#1596=CARTESIAN_POINT('',(-18.,-60.5,16.));
#1597=CARTESIAN_POINT('Origin',(-20.,-60.5,16.));
#1598=CARTESIAN_POINT('',(-18.,-60.5,5.));
#1599=CARTESIAN_POINT('',(-18.,-60.5,9.));
#1600=CARTESIAN_POINT('',(-20.,-60.5,3.));
#1601=CARTESIAN_POINT('Origin',(-20.,-60.5,5.));
#1602=CARTESIAN_POINT('',(-46.,-60.5,3.));
#1603=CARTESIAN_POINT('',(-45.5,-60.5,3.));
#1604=CARTESIAN_POINT('Origin',(-46.,-60.5,5.));
#1605=CARTESIAN_POINT('Origin',(63.,50.5,0.));
#1606=CARTESIAN_POINT('',(63.,25.25,5.));
#1607=CARTESIAN_POINT('Origin',(-63.,-50.5,0.));
#1608=CARTESIAN_POINT('',(-46.,-50.5,3.));
#1609=CARTESIAN_POINT('Origin',(-46.,-50.5,5.));
#1610=CARTESIAN_POINT('',(-20.,-50.5,3.));
#1611=CARTESIAN_POINT('',(22.5,-50.5,3.));
#1612=CARTESIAN_POINT('Origin',(-20.,-50.5,5.));
#1613=CARTESIAN_POINT('',(-63.,-50.5,5.));
#1614=CARTESIAN_POINT('Origin',(59.,46.5,0.));
#1615=CARTESIAN_POINT('',(59.,-46.5,3.));
#1616=CARTESIAN_POINT('',(59.,46.5,3.));
#1617=CARTESIAN_POINT('',(59.,46.5,3.));
#1618=CARTESIAN_POINT('',(59.,-46.5,5.));
#1619=CARTESIAN_POINT('',(59.,-46.5,0.));
#1620=CARTESIAN_POINT('',(59.,46.5,5.));
#1621=CARTESIAN_POINT('',(59.,46.5,5.));
#1622=CARTESIAN_POINT('',(59.,46.5,0.));
#1623=CARTESIAN_POINT('Origin',(59.,-46.5,0.));
#1624=CARTESIAN_POINT('',(-59.,-46.5,3.));
#1625=CARTESIAN_POINT('',(59.,-46.5,3.));
#1626=CARTESIAN_POINT('',(-59.,-46.5,5.));
#1627=CARTESIAN_POINT('',(-59.,-46.5,0.));
#1628=CARTESIAN_POINT('',(59.,-46.5,5.));
#1629=CARTESIAN_POINT('',(59.,-46.5,3.));
#1630=CARTESIAN_POINT('Origin',(-59.,46.5,0.));
#1631=CARTESIAN_POINT('',(-59.,46.5,3.));
#1632=CARTESIAN_POINT('',(-59.,46.5,3.));
#1633=CARTESIAN_POINT('',(-59.,46.5,5.));
#1634=CARTESIAN_POINT('',(-59.,46.5,5.));
#1635=CARTESIAN_POINT('',(-59.,46.5,0.));
#1636=CARTESIAN_POINT('Origin',(-59.,-46.5,0.));
#1637=CARTESIAN_POINT('',(-59.,-46.5,3.));
#1638=CARTESIAN_POINT('',(-59.,-46.5,5.));
#1639=CARTESIAN_POINT('Origin',(0.,-8.88178419700125E-15,5.));
#1640=CARTESIAN_POINT('',(-63.,-25.25,5.));
#1641=CARTESIAN_POINT('Origin',(-63.,-50.5,0.));
#1642=CARTESIAN_POINT('Origin',(-20.,-60.5,5.));
#1643=CARTESIAN_POINT('',(-18.,-60.5,5.));
#1644=CARTESIAN_POINT('',(-20.,-60.5,3.));
#1645=CARTESIAN_POINT('Origin',(-18.,-60.5,18.));
#1646=CARTESIAN_POINT('',(-18.,-60.5,16.));
#1647=CARTESIAN_POINT('Origin',(-20.,-60.5,16.));
#1648=CARTESIAN_POINT('',(-20.,-60.5,18.));
#1649=CARTESIAN_POINT('Origin',(-48.,-60.5,18.));
#1650=CARTESIAN_POINT('',(-46.,-60.5,18.));
#1651=CARTESIAN_POINT('Origin',(-46.,-60.5,16.));
#1652=CARTESIAN_POINT('',(-48.,-60.5,16.));
#1653=CARTESIAN_POINT('Origin',(-48.,-60.5,3.));
#1654=CARTESIAN_POINT('',(-48.,-60.5,5.));
#1655=CARTESIAN_POINT('Origin',(-46.,-60.5,5.));
#1656=CARTESIAN_POINT('',(-46.,-60.5,3.));
#1657=CARTESIAN_POINT('Origin',(-18.,-60.5,3.));
#1658=CARTESIAN_POINT('Origin',(68.,-55.5,24.));
#1659=CARTESIAN_POINT('',(69.5,-55.5,9.));
#1660=CARTESIAN_POINT('',(69.5,-55.5,24.));
#1661=CARTESIAN_POINT('Origin',(68.,-55.5,9.));
#1662=CARTESIAN_POINT('Origin',(68.,-55.5,9.));
#1663=CARTESIAN_POINT('Origin',(68.,55.5,24.));
#1664=CARTESIAN_POINT('',(69.5,55.5,9.));
#1665=CARTESIAN_POINT('',(69.5,55.5,24.));
#1666=CARTESIAN_POINT('Origin',(68.,55.5,9.));
#1667=CARTESIAN_POINT('Origin',(68.,55.5,9.));
#1668=CARTESIAN_POINT('Origin',(-68.,-55.5,24.));
#1669=CARTESIAN_POINT('',(-66.5,-55.5,9.));
#1670=CARTESIAN_POINT('',(-66.5,-55.5,24.));
#1671=CARTESIAN_POINT('Origin',(-68.,-55.5,9.));
#1672=CARTESIAN_POINT('Origin',(-68.,-55.5,9.));
#1673=CARTESIAN_POINT('Origin',(-68.,55.5,24.));
#1674=CARTESIAN_POINT('',(-66.5,55.5,9.));
#1675=CARTESIAN_POINT('',(-66.5,55.5,24.));
#1676=CARTESIAN_POINT('Origin',(-68.,55.5,9.));
#1677=CARTESIAN_POINT('Origin',(-68.,55.5,9.));
#1678=CARTESIAN_POINT('Origin',(-73.,60.5,0.));
#1679=CARTESIAN_POINT('',(-73.,60.5,0.));
#1680=CARTESIAN_POINT('',(-73.,-60.5,0.));
#1681=CARTESIAN_POINT('',(-73.,60.5,0.));
#1682=CARTESIAN_POINT('Origin',(73.,60.5,0.));
#1683=CARTESIAN_POINT('',(73.,60.5,0.));
#1684=CARTESIAN_POINT('',(73.,60.5,0.));
#1685=CARTESIAN_POINT('',(-73.,60.5,0.));
#1686=CARTESIAN_POINT('Origin',(73.,-60.5,0.));
#1687=CARTESIAN_POINT('',(73.,60.5,0.));
#1688=CARTESIAN_POINT('Origin',(1.77635683940025E-14,8.88178419700125E-15,
0.));
#1689=CARTESIAN_POINT('Origin',(0.,0.,3.));
#1690=CARTESIAN_POINT('',(0.,0.,0.));
#1691=CARTESIAN_POINT('Origin',(73.,-60.5,13.));
#1692=CARTESIAN_POINT('',(73.,-60.5,13.));
#1693=CARTESIAN_POINT('',(7.00000000000003,-60.5,13.));
#1694=CARTESIAN_POINT('',(73.,-60.5,13.));
#1695=CARTESIAN_POINT('',(7.00000000000003,60.5,13.));
#1696=CARTESIAN_POINT('',(7.00000000000003,-60.5,13.));
#1697=CARTESIAN_POINT('',(73.,60.5,13.));
#1698=CARTESIAN_POINT('',(73.,60.5,13.));
#1699=CARTESIAN_POINT('',(73.,-60.5,13.));
#1700=CARTESIAN_POINT('Origin',(73.,-60.5,14.0606601717798));
#1701=CARTESIAN_POINT('',(73.,-60.5,14.0606601717798));
#1702=CARTESIAN_POINT('',(73.,-60.5,13.));
#1703=CARTESIAN_POINT('',(73.,60.5,14.0606601717798));
#1704=CARTESIAN_POINT('',(73.,60.5,13.));
#1705=CARTESIAN_POINT('',(73.,-60.5,14.0606601717798));
#1706=CARTESIAN_POINT('Origin',(8.06066017177985,-60.5,14.0606601717798));
#1707=CARTESIAN_POINT('',(8.06066017177985,-60.5,14.0606601717798));
#1708=CARTESIAN_POINT('',(8.06066017177985,-60.5,14.0606601717798));
#1709=CARTESIAN_POINT('',(8.06066017177985,60.5,14.0606601717798));
#1710=CARTESIAN_POINT('',(8.06066017177985,60.5,14.0606601717798));
#1711=CARTESIAN_POINT('',(8.06066017177985,-60.5,14.0606601717798));
#1712=CARTESIAN_POINT('Origin',(8.06066017177985,-60.5,19.0606601717798));
#1713=CARTESIAN_POINT('',(3.08339306772047,-60.5,19.5369081899891));
#1714=CARTESIAN_POINT('Origin',(8.06066017177985,-60.5,19.0606601717798));
#1715=CARTESIAN_POINT('',(3.08339306772047,60.5,19.5369081899891));
#1716=CARTESIAN_POINT('Origin',(8.06066017177985,60.5,19.0606601717798));
#1717=CARTESIAN_POINT('',(3.08339306772047,-60.5,19.5369081899891));
#1718=CARTESIAN_POINT('Origin',(-1.89387411050598,-60.5,20.0131562152951));
#1719=CARTESIAN_POINT('',(-1.89387411050598,-60.5,25.0131562898009));
#1720=CARTESIAN_POINT('Origin',(-1.89387411050598,-60.5,20.0131562152951));
#1721=CARTESIAN_POINT('',(-1.89387411050598,60.5,25.0131562898009));
#1722=CARTESIAN_POINT('Origin',(-1.89387411050598,60.5,20.0131562152951));
#1723=CARTESIAN_POINT('',(-1.89387411050598,-60.5,25.0131562898009));
#1724=CARTESIAN_POINT('Origin',(-73.,-60.5,25.0131562898009));
#1725=CARTESIAN_POINT('',(-73.,-60.5,25.0131562898009));
#1726=CARTESIAN_POINT('',(-1.89387411050598,-60.5,25.0131562898009));
#1727=CARTESIAN_POINT('',(-73.,60.5,25.0131562898009));
#1728=CARTESIAN_POINT('',(-1.89387411050598,60.5,25.0131562898009));
#1729=CARTESIAN_POINT('',(-73.,-60.5,25.0131562898009));
#1730=CARTESIAN_POINT('Origin',(-73.,-60.5,24.));
#1731=CARTESIAN_POINT('',(-73.,-60.5,24.));
#1732=CARTESIAN_POINT('',(-73.,-60.5,25.0131562898009));
#1733=CARTESIAN_POINT('',(-73.,60.5,24.));
#1734=CARTESIAN_POINT('',(-73.,60.5,25.0131562898009));
#1735=CARTESIAN_POINT('',(-73.,-60.5,24.));
#1736=CARTESIAN_POINT('Origin',(-2.99999999999997,-60.5,24.));
#1737=CARTESIAN_POINT('',(-2.99999999999997,-60.5,24.));
#1738=CARTESIAN_POINT('',(-2.99999999999997,-60.5,24.));
#1739=CARTESIAN_POINT('',(-2.99999999999997,60.5,24.));
#1740=CARTESIAN_POINT('',(-2.99999999999997,60.5,24.));
#1741=CARTESIAN_POINT('',(-2.99999999999997,-60.5,24.));
#1742=CARTESIAN_POINT('Origin',(-2.99999999999997,-60.5,19.));
#1743=CARTESIAN_POINT('',(2.00000000000003,-60.5,19.));
#1744=CARTESIAN_POINT('Origin',(-2.99999999999997,-60.5,19.));
#1745=CARTESIAN_POINT('',(2.00000000000003,60.5,19.));
#1746=CARTESIAN_POINT('Origin',(-2.99999999999997,60.5,19.));
#1747=CARTESIAN_POINT('',(2.00000000000003,-60.5,19.));
#1748=CARTESIAN_POINT('Origin',(2.00000000000003,-60.5,18.));
#1749=CARTESIAN_POINT('',(2.00000000000003,-60.5,18.));
#1750=CARTESIAN_POINT('',(2.00000000000003,-60.5,18.));
#1751=CARTESIAN_POINT('',(2.00000000000003,60.5,18.));
#1752=CARTESIAN_POINT('',(2.00000000000003,60.5,18.));
#1753=CARTESIAN_POINT('',(2.00000000000003,-60.5,18.));
#1754=CARTESIAN_POINT('Origin',(7.00000000000003,-60.5,18.));
#1755=CARTESIAN_POINT('Origin',(7.00000000000003,-60.5,18.));
#1756=CARTESIAN_POINT('Origin',(7.00000000000003,60.5,18.));
#1757=CARTESIAN_POINT('Origin',(1.77635683940025E-14,-60.5,19.0065781449005));
#1758=CARTESIAN_POINT('Origin',(1.77635683940025E-14,60.5,19.0065781449005));
#1759=CARTESIAN_POINT('',(0.,0.,0.));
#1760=CARTESIAN_POINT('',(0.,0.,0.));
#1761=UNCERTAINTY_MEASURE_WITH_UNIT(LENGTH_MEASURE(0.01),#1769,
'DISTANCE_ACCURACY_VALUE',
'Maximum model space distance between geometric entities at asserted c
onnectivities');
#1762=UNCERTAINTY_MEASURE_WITH_UNIT(LENGTH_MEASURE(0.01),#1769,
'DISTANCE_ACCURACY_VALUE',
'Maximum model space distance between geometric entities at asserted c
onnectivities');
#1763=UNCERTAINTY_MEASURE_WITH_UNIT(LENGTH_MEASURE(0.01),#1769,
'DISTANCE_ACCURACY_VALUE',
'Maximum model space distance between geometric entities at asserted c
onnectivities');
#1764=UNCERTAINTY_MEASURE_WITH_UNIT(LENGTH_MEASURE(0.01),#1769,
'DISTANCE_ACCURACY_VALUE',
'Maximum model space distance between geometric entities at asserted c
onnectivities');
#1765=(
GEOMETRIC_REPRESENTATION_CONTEXT(3)
GLOBAL_UNCERTAINTY_ASSIGNED_CONTEXT((#1761))
GLOBAL_UNIT_ASSIGNED_CONTEXT((#1769,#1771,#1772))
REPRESENTATION_CONTEXT('','3D')
);
#1766=(
GEOMETRIC_REPRESENTATION_CONTEXT(3)
GLOBAL_UNCERTAINTY_ASSIGNED_CONTEXT((#1762))
GLOBAL_UNIT_ASSIGNED_CONTEXT((#1769,#1771,#1772))
REPRESENTATION_CONTEXT('','3D')
);
#1767=(
GEOMETRIC_REPRESENTATION_CONTEXT(3)
GLOBAL_UNCERTAINTY_ASSIGNED_CONTEXT((#1763))
GLOBAL_UNIT_ASSIGNED_CONTEXT((#1769,#1771,#1772))
REPRESENTATION_CONTEXT('','3D')
);
#1768=(
GEOMETRIC_REPRESENTATION_CONTEXT(3)
GLOBAL_UNCERTAINTY_ASSIGNED_CONTEXT((#1764))
GLOBAL_UNIT_ASSIGNED_CONTEXT((#1769,#1771,#1772))
REPRESENTATION_CONTEXT('','3D')
);
#1769=(
LENGTH_UNIT()
NAMED_UNIT(*)
SI_UNIT(.MILLI.,.METRE.)
);
#1770=(
LENGTH_UNIT()
NAMED_UNIT(*)
SI_UNIT($,.METRE.)
);
#1771=(
NAMED_UNIT(*)
PLANE_ANGLE_UNIT()
SI_UNIT($,.RADIAN.)
);
#1772=(
NAMED_UNIT(*)
SI_UNIT($,.STERADIAN.)
SOLID_ANGLE_UNIT()
);
#1773=SHAPE_DEFINITION_REPRESENTATION(#1776,#1781);
#1774=SHAPE_DEFINITION_REPRESENTATION(#1777,#1782);
#1775=SHAPE_DEFINITION_REPRESENTATION(#1778,#1783);
#1776=PRODUCT_DEFINITION_SHAPE('',$,#1785);
#1777=PRODUCT_DEFINITION_SHAPE('',$,#1786);
#1778=PRODUCT_DEFINITION_SHAPE('',$,#1787);
#1779=PRODUCT_DEFINITION_SHAPE($,$,#17);
#1780=PRODUCT_DEFINITION_SHAPE($,$,#18);
#1781=SHAPE_REPRESENTATION('',(#1069,#1161,#1162),#1765);
#1782=SHAPE_REPRESENTATION('',(#1070),#1766);
#1783=SHAPE_REPRESENTATION('',(#1139),#1767);
#1784=PRODUCT_DEFINITION_CONTEXT('part definition',#1795,'design');
#1785=PRODUCT_DEFINITION('mousepad (v2~recovered)',
'mousepad (v2~recovered)',#1788,#1784);
#1786=PRODUCT_DEFINITION('\X2\30B330F330DD30FC30CD30F330C8\X0\1',
'\X2\30B330F330DD30FC30CD30F330C8\X0\1',#1789,#1784);
#1787=PRODUCT_DEFINITION('\X2\30B330F330DD30FC30CD30F330C8\X0\3',
'\X2\30B330F330DD30FC30CD30F330C8\X0\3',#1790,#1784);
#1788=PRODUCT_DEFINITION_FORMATION('',$,#1797);
#1789=PRODUCT_DEFINITION_FORMATION('',$,#1798);
#1790=PRODUCT_DEFINITION_FORMATION('',$,#1799);
#1791=PRODUCT_RELATED_PRODUCT_CATEGORY('mousepad (v2~recovered)',
'mousepad (v2~recovered)',(#1797));
#1792=PRODUCT_RELATED_PRODUCT_CATEGORY('\X2\30B330F330DD30FC30CD30F330C8\X0\1',
'\X2\30B330F330DD30FC30CD30F330C8\X0\1',(#1798));
#1793=PRODUCT_RELATED_PRODUCT_CATEGORY('\X2\30B330F330DD30FC30CD30F330C8\X0\3',
'\X2\30B330F330DD30FC30CD30F330C8\X0\3',(#1799));
#1794=APPLICATION_PROTOCOL_DEFINITION('international standard',
'automotive_design',2009,#1795);
#1795=APPLICATION_CONTEXT(
'Core Data for Automotive Mechanical Design Process');
#1796=PRODUCT_CONTEXT('part definition',#1795,'mechanical');
#1797=PRODUCT('mousepad (v2~recovered)','mousepad (v2~recovered)',$,(#1796));
#1798=PRODUCT('\X2\30B330F330DD30FC30CD30F330C8\X0\1',
'\X2\30B330F330DD30FC30CD30F330C8\X0\1',$,(#1796));
#1799=PRODUCT('\X2\30B330F330DD30FC30CD30F330C8\X0\3',
'\X2\30B330F330DD30FC30CD30F330C8\X0\3',$,(#1796));
#1800=PRESENTATION_STYLE_ASSIGNMENT((#1801));
#1801=SURFACE_STYLE_USAGE(.BOTH.,#1802);
#1802=SURFACE_SIDE_STYLE('',(#1803));
#1803=SURFACE_STYLE_FILL_AREA(#1804);
#1804=FILL_AREA_STYLE('\X2\92FC\X0\ - \X2\30B530C630F3\X0\',(#1805));
#1805=FILL_AREA_STYLE_COLOUR('\X2\92FC\X0\ - \X2\30B530C630F3\X0\',#1806);
#1806=COLOUR_RGB('\X2\92FC\X0\ - \X2\30B530C630F3\X0\',0.627450980392157,
0.627450980392157,0.627450980392157);
ENDSEC;
END-ISO-10303-21;
